<svg xmlns="http://www.w3.org/2000/svg"><symbol viewBox="0 0 500 500" id="icon-bricks"><title>bricks</title> <path d="M26.7,381.4C12.6,381.4,1,369.9,1,355.8c0-20.1,0-40.2,0-60.3c0-13.5,10.9-25.2,24.5-25.4c15.5-0.3,31-0.1,46.6-0.2
	c0.7,0,1.4,0,2.3,0c-0.2-1-0.4-1.8-0.5-2.7c-0.2-1.6-0.5-3.2-0.5-4.9c0-19.7,0-39.3,0-59c0-15.6,11.1-26.8,26.7-26.8
	c17.5,0,35,0,52.4,0c0.6,0,1.3,0,1.9,0c-1.7-11.1-0.7-22.1-0.9-33.1c-0.2-11.1-0.1-22.1,0-33.2c0-13,7.5-23.1,19.5-26.2
	c2.4-0.6,4.9-0.9,7.4-0.9c41.6-0.1,83.2,0,124.8,0c13.1,0,23.4,8,26.2,20.4c0.4,1.7,0.6,3.4,0.6,5.2c0,20.1,0.1,40.3,0,60.4
	c0,2.4-0.5,4.8-0.8,7.4c0.5,0,1.2,0,1.8,0c17.5,0,35,0,52.4,0c11.9,0,21.5,6.5,25.2,17.3c0.9,2.7,1.5,5.6,1.5,8.5
	c0.1,20,0.1,40,0,60c0,2.5-0.5,4.9-0.8,7.6c0.7,0,1.4,0,2.1,0c19.9,0,39.9,0,59.8,0c7,0,13.2,2,18.4,6.7c5.2,4.7,8.4,10.7,8.5,17.8
	c0.2,20.9,0.3,41.8,0,62.7c-0.2,13.4-12,24.4-25.4,24.4C433.3,381.4,68.2,381.4,26.7,381.4z M241.7,101.4c-20.7,0-41.5,0-62.2,0
	c-5.5,0-8.7,3.1-8.7,8.5c0,19.4,0,38.8,0,58.2c0,5.4,3.2,8.4,8.6,8.4c27.3,0,54.6,0,81.8,0c14.6,0,29.2,0,43.8,0
	c4.5,0,7.9-3.2,7.9-7.6c0-20,0-40-0.1-59.9c0-1.5-0.7-3.1-1.5-4.4c-1.7-2.5-4.3-3.2-7.3-3.2C283.3,101.4,262.5,101.4,241.7,101.4z
	 M410.2,363.2c21,0,41.9,0,62.9,0c4.9,0,8.1-3.2,8.1-8c0-2.3,0-4.6,0-6.9c0-17.3,0-34.5,0-51.8c0-3.1-1-5.7-3.7-7.1
	c-1.6-0.8-3.5-1.2-5.3-1.2c-41.5,0-83,0-124.5,0.1c-0.2,0-0.4,0-0.7,0c-5,0.1-8.1,3.2-8.1,8.3c0,19.5,0,39,0,58.5
	c0,5.1,3.2,8.3,8.3,8.3C368.2,363.2,389.2,363.2,410.2,363.2z M249.7,288.2c-15.7,0-31.5,0-47.2,0c-5.2,0-10.3,0.1-15.5,0
	c-4.9-0.1-8.4,3.4-8.4,8.3c0,19.4,0,38.9,0,58.3c0,5.3,3.2,8.4,8.5,8.4c41.8,0,83.5,0,125.3,0c0.5,0,1,0,1.5,0
	c3.6-0.2,6.8-3.5,6.9-7.1c0-20.3,0-40.5-0.1-60.8c0-1.5-0.8-3.2-1.7-4.4c-1.6-2.3-4.1-2.8-6.8-2.8
	C291.3,288.2,270.5,288.2,249.7,288.2z M89.2,363.2c9,0,18.1,0,27.1,0c12.1,0,24.3,0,36.4,0c4.3,0,7.5-3.3,7.5-7.6
	c0-20,0-40-0.1-59.9c0-1.5-0.7-3.2-1.5-4.5c-1.6-2.5-4.3-3-7.2-3c-28.6,0-57.2-0.1-85.7-0.1c-12.7,0-25.4,0-38.1,0c-0.5,0-1,0-1.5,0
	c-5.1,0.3-8,3.3-8,8.4c0,19.5,0,39,0,58.5c0,5.1,3.1,8.2,8.2,8.2C47.4,363.2,68.3,363.2,89.2,363.2z M321.9,269.8
	c20.9,0,41.8-0.1,62.7,0.1c5,0,8.6-3.7,8.5-8.6c-0.1-19.2,0-38.4,0-57.7c0-5.8-3-8.9-8.8-8.9c-41.7,0-83.3,0.1-125,0
	c-5.2,0-8.5,4.1-8.4,8.5c0.1,19.4,0.1,38.8,0,58.2c0,4.5,3.4,8.5,8.5,8.5C280.2,269.7,301.1,269.8,321.9,269.8z M161.6,269.8
	c20.8,0,41.6-0.1,62.4,0.1c5.4,0.1,8.8-4,8.7-8.7c-0.2-19.2-0.2-38.4,0-57.7c0-4.5-3-8.8-8.8-8.8c-41.3,0.1-82.7,0-124,0
	c-0.5,0-1,0-1.5,0c-4.9,0.2-7.9,3.4-7.9,8.3c0,19.5,0.1,39-0.1,58.5c0,4.5,3.5,8.4,8.4,8.4C119.8,269.7,140.7,269.8,161.6,269.8z"/> </symbol><symbol viewBox="0 0 500 500" id="icon-brush"><title>brush</title> <path d="M250.3,268.2c0-0.9,0-1.7,0-2.5c0-18.3,0-36.7,0-55c0-4.2-1.2-5.3-5.4-5.3c-53.5,0-107,0-160.5,0
	c-16.5,0-29.1-12.6-29.1-29.1c0-26.7,0-53.3,0-80c0-17.1,12.4-29.5,29.4-29.5c0.9,0,1.8,0,3.1,0c0-1.2,0-2.2,0-3.2c0-16,0-32,0-48
	c0-8.7,5.1-13.8,13.8-13.8c96.6,0,193.2,0,289.8,0c9.1,0,13.9,4.8,13.9,13.9c0,14.8,0,29.5,0,44.3c0,1,0,2,0,3.4c2.6,0,5.1,0,7.6,0
	c2.6,0.1,5.2-0.2,7.7,0.4c5.8,1.3,9.6,7,9.1,13.2c-0.5,5.8-5.1,10.6-11,11.1c-3.5,0.3-7,0.1-10.5,0.2c-0.9,0-1.8,0.1-2.9,0.1
	c0,1.1,0,2,0,2.9c0,12.1,0,24.2,0,36.3c0,7.8-5.2,13-13,13c-97.1,0-194.2,0-291.3,0c-7.8,0-13.1-5.3-13.1-13.2c0-10.8,0-21.7,0-32.5
	c0-0.9,0-1.8,0-2.7c-5.5-1.3-7.6,0.3-7.6,5.6c0,25.7,0,51.3,0,77c0,4.8,1,5.8,5.8,5.8c53.3,0,106.5,0,159.8,0
	c15,0,26.6,9.7,29.1,24.3c0.3,1.5,0.3,3,0.3,4.5c0,18.8,0,37.7,0,56.5c0,1,0,2,0,2.7c4.1,1.7,8,3,11.7,5
	c13.5,7.5,20.9,18.7,20.9,34.6c-0.1,53.3-0.2,106.7,0.1,160c0.1,14.6-8.7,26.9-25.2,29.1c-12.6,1.6-25.5,1.6-38.1-0.3
	c-7.3-1.1-13.8-4.2-19.2-9.5c-4.9-5-7.5-11-7.5-18c0-54.5-0.1-109,0-163.5c0-17.5,11.9-32,29.7-36.9
	C248.4,268.7,249.2,268.5,250.3,268.2z M112.9,26.7c0,29.6,0,59.1,0,88.5c89.2,0,178.3,0,267.3,0c0-29.6,0-59,0-88.5
	C290.9,26.7,201.9,26.7,112.9,26.7z M282.8,387.4c0-26.5-0.1-53,0.1-79.5c0-5.3-2.1-9-6.4-11.6c-7.9-4.8-16.3-5.6-24.9-2.3
	c-5.9,2.2-8.9,6.7-8.9,13.1c0,53.5,0,107,0,160.4c0,1.7,0.6,2.9,2,3.3c3,0.8,6.1,1.9,9.2,2c7.2,0.3,14.3,0.1,21.5,0.1
	c1.2,0,2.5-0.1,3.7-0.4c3.4-0.7,3.7-1.1,3.7-4.7C282.8,441,282.8,414.2,282.8,387.4z"/> </symbol><symbol viewBox="0 0 133.7 133.7" id="icon-cement-machine"><title>cement-machine</title> <path d="M15.6,102.8c-3.4,0-3.5-0.2-3.5-3.5c0-7.7,0-15.3,0-23s-0.1-15.3,0-23c0-2.4-0.7-3.3-3.1-3.2c-5,0.1-4.6,0.5-4.6-4.5
	c0-3.8,0.1-7.7-0.1-11.5c0-8.9,9.5-11.5,13.1-11.5c6.4,0.4,12.8,0.2,19.2,0.1c1.9,0,2.7,0.5,2.6,2.5c-0.1,7.5-0.1,15,0,22.5
	c0,1.8-0.6,2.7-2.5,2.5c-1.9-0.2-2.6,0.6-2.6,2.6c0.1,14.2,0.1,28.3,0,42.5c0,2,0.7,2.6,2.6,2.6c1.9,0,2.6-0.6,2.6-2.6
	c0-5.3-0.1-32.5-0.1-32.5l0-7.3l5.2-0.1c1.6,0,2.3-0.7,2.3-2.2c0-1.2-0.1-2.3,0.1-3.5c0.1-0.7,0.5-1.7,0.9-1.8
	c2-0.3,2.1-1.7,2.5-3.2c2.2-10.4,4.4-20.8,6.8-31.2c1-4.6,4.1-6.9,8.8-6.9c11.9,0,23.8,0,35.8,0c6.1,0,9.2,2.6,10.4,8.6
	c2.1,10,4.2,20,6.4,30c0.2,1,1.5,1.7,2.1,2.6c0.6,0.9,1.2,1.9,1.3,2.9c0.1,5.5,0.1,4.7,4.8,4.7c0.8,0,2.5,0,2.5,0s0.2,6.4,0.2,7.7
	c0,12,0,24,0,36c0,3.6-0.2,3.8-3.8,3.7L15.6,102.8z M113.7,47.4c0.1-0.5,0.2-0.8,0.1-1c-2.2-10.5-4.4-21-6.7-31.5
	c-0.5-2.4-2.1-3.5-4.7-3.5c-12,0.1-24,0-36,0c-3.1,0-4.3,0.8-4.9,3.8c-2.2,9.7-4.2,19.5-6.3,29.3c-0.6,3-0.5,3.1,2.6,3.1
	c17.7,0,35.3,0,53,0C111.8,47.6,112.8,47.4,113.7,47.4z M44.3,61.6c0,0,0,22.6,0,33c0,3.2,0,3.3,3.4,3.3c12.2,0,24.5,0,36.7,0
	c12.2,0,24.5,0,36.7,0c3.4,0,3.4,0,3.4-3.3c0-10.3,0-20.7,0-31c0-1.1,0.8-3.2-1.2-3.2c-2,0-0.9,2.1-1.3,3.2
	c-0.4,0.9-0.9,2.5-1.5,2.5c-1.7,0.2-2.4,1.2-3.1,2.5c-3.3,6.4-6.7,12.8-10,19.3c-1.9,3.8-4.8,5.7-9.2,5.7c-9-0.1-18-0.1-27,0
	c-4.2,0-7.1-1.7-9.1-5.4C58.6,81.5,55,75,51.4,68.4c-0.5-0.9-1.4-1.9-2.2-2c-2-0.2-2.3-1.3-2.2-2.9c0-2,0-2,0-2 M56.3,66.5
	c0.1,0.7,0.1,1,0.3,1.3c3.3,6.2,6.6,12.3,9.9,18.4c1,1.8,2.5,2.4,4.6,2.4c9-0.1,18-0.1,27,0c2.5,0,4-1,5.1-3.1
	c2.9-5.6,5.8-11.2,8.7-16.8c0.3-0.6,0.4-1.3,0.7-2.2C93.7,66.5,75.2,66.5,56.3,66.5z M29.5,53.2c0-2.4-0.8-3.1-3-2.9
	c-2.4,0.2-4.8,0.1-7.2,0c-1.7-0.1-2.4,0.5-2.4,2.3c0,14.2,0,28.5,0,42.7c0,1.8,0.8,2.3,2.4,2.3c2.3-0.1,4.7-0.2,7,0
	c2.5,0.2,3.4-0.6,3.3-3.2 M84.5,61.3c9.3,0,18.6,0,28,0c4.8,0,4.8,0,4.8-4.8c0-3.8,0-3.9-3.9-3.9c-18.8,0-37.6,0-56.4,0
	c-5.2,0-5.2,0-5.2,5.2c0,3.3,0.2,3.5,3.6,3.5C65,61.3,74.7,61.3,84.5,61.3z M32,45.1c1.8,0,2.6-0.6,2.5-2.5c-0.1-4.2-0.1-8.5,0-12.7
	c0-1.8-0.6-2.5-2.5-2.5c-5.6,0.1-11.1,0-16.7,0c-3.3,0-6.1,3.1-6.1,5.6c-0.1,3.5,0,7,0,10.5c0,1.4,0.7,1.8,2,1.8"/> <path d="M102.1,117.5c0.1-6.9,5.6-12.2,12.5-12.1c6.8,0.1,12.3,5.8,12.1,12.6c-0.2,6.8-5.8,12.3-12.6,12.2
	C107.4,130.1,102,124.4,102.1,117.5z M114.5,110.2c-4.3,0-7.6,3.2-7.7,7.5c0,4.2,3.4,7.7,7.6,7.6c4.1,0,7.7-3.6,7.6-7.7
	C122,113.6,118.7,110.2,114.5,110.2z"/> <path d="M26.9,105.4c7,0,12.4,5.2,12.4,12.2c0,6.9-5.3,12.4-12.2,12.5c-6.7,0.1-12.4-5.5-12.5-12.3C14.5,111,20.1,105.4,26.9,105.4z
	 M27,110.2c-4.2,0-7.7,3.4-7.6,7.6c0,4.1,3.7,7.6,7.8,7.6c4.1-0.1,7.3-3.4,7.4-7.6C34.5,113.4,31.4,110.2,27,110.2z"/> </symbol><symbol viewBox="0 0 971.9 971.9" id="icon-decade"><title>decade</title> <g id="decade-Layer_1"> <g> <path d="M272.6,867.5V230.4l-98.8,50.8v-81l98.8-60.1h75.2v727.5H272.6z"/> </g> </g> <g id="decade-Layer_2"> <text transform="matrix(0.838 0 0 1 375.125 849.9053)" font-family="&apos;Thonburi&apos;" font-size="910.3375" letter-spacing="-211.2">0</text> </g> </symbol><symbol viewBox="0 0 146.6 146.6" id="icon-helmet"><title>helmet</title> <g> <path d="M77.6,117.8c-9.7,0-19.3,0-29,0c-1.3,0-2.7-0.1-4,0.1c-4.4,0.7-5.4,1.8-6,6.4c-1.3,9.7-10.8,14.4-18.9,9.4
		c-3.3-2-5.3-5-5.3-9c0-5-0.1-10,0-15c0.1-2.7-0.9-3.8-3.7-4.1c-5.8-0.6-8.2-3.4-8.3-9.1c-0.1-2.2,0-4.3,0-6.5c0-3.1,1-5.6,3.7-7.2
		c1.9-1.1,2.2-2.5,2.4-4.5c1.3-11.6,5.9-21.7,13.8-30.3c5.5-5.9,11.7-10.7,19.2-13.9c3.8-1.7,6.9-5.1,10-8.1
		c4.3-4.3,9.4-6.9,15.4-7.4c5-0.4,9.9,0.9,14.6,2.5c24.8,8.2,40,25.2,45.9,50.6c1.5,6.7,1.2,13.5,1.2,20.4c0,1.7,0,3.3,0,5
		c0,1.7,0.8,2.4,2.4,2.4c2.8,0,5.7,0,8.5,0c1.2,0,2.4-0.1,3.5,0.1c2,0.4,3.5,1.5,3.4,3.7c-0.2,2.1-2,2.4-3.7,2.4
		c-5.5,0-11,0.1-16.5,0c-2.4,0-4,0.5-5.1,3c-3,6.7-8.1,9.5-15.5,9.2C96.2,117.5,86.9,117.8,77.6,117.8z M58,30.3
		c4.8,0.4,9-0.2,13.1,0.5c9.9,1.7,18.6,6,26.4,12.3c5.1,4.2,9.1,9.3,12.3,15c1.3,2.2,0.6,4-1.4,5c-1.9,1-3.1,0-4.1-1.6
		c-1-1.7-2.2-3.3-3.3-5c-11.1-15.9-32.3-23.7-51.2-18c-18.6,5.6-30.3,17.9-34.4,37.1c-1.3,5.9-1.4,5.9,4.5,5.9c16,0,32,0,48,0
		c1.6,0,3.4-0.3,4.8,0.8c1.1,0.8,2,1.8,1.6,3.4C74,87,73,87.6,71.7,87.7c-1.3,0.1-2.7,0.1-4,0.1c-17.5,0-35,0-52.5,0
		c-6.4,0-6.8,0.5-6.6,6.9c0,0.2,0,0.3,0,0.5c0.2,3.7,0.7,4.2,4.4,4.4c1.2,0.1,2.3,0,3.5,0c30.7,0,61.3,0,92,0c3.5,0,7-0.1,10.5,0
		c2.6,0.1,3.5-1,3.4-3.5c-0.2-6.6,0.2-13.3-0.9-19.9c-1.2-7.5-3.4-14.6-7.2-21.1c-5.4-9.2-12.6-16.6-21.8-22.1
		c-7.3-4.3-15.1-7-23.4-7.7C65.1,24.9,60.7,25.6,58,30.3z M67.5,105.7c-13.2,0-26.3,0-39.5,0c-1.7,0-3.3,0-5,0
		c-1.7,0-2.4,0.8-2.4,2.4c0,5.3-0.2,10.7,0.1,16c0.2,4.3,4.8,6.4,8.4,4c2-1.3,3.1-3.1,3.4-5.7c0.5-6,3.3-8.8,9-10.5
		c1.8-0.5,3.6-0.4,5.4-0.4c19.5,0,39,0,58.4,0c2.2,0,4.4,0.1,6.3-1.2c1.2-0.8,2.9-1.7,2.6-3.4c-0.4-1.5-2.4-1.3-3.8-1.3
		C96.1,105.7,81.8,105.7,67.5,105.7z"/> </g> </symbol><symbol viewBox="0 0 20 20" id="icon-home"><title>home</title> <path d="M19.871 12.165l-8.829-9.758c-0.274-0.303-0.644-0.47-1.042-0.47-0 0 0 0 0 0-0.397 0-0.767 0.167-1.042 0.47l-8.829 9.758c-0.185 0.205-0.169 0.521 0.035 0.706 0.096 0.087 0.216 0.129 0.335 0.129 0.136 0 0.272-0.055 0.371-0.165l2.129-2.353v8.018c0 0.827 0.673 1.5 1.5 1.5h11c0.827 0 1.5-0.673 1.5-1.5v-8.018l2.129 2.353c0.185 0.205 0.501 0.221 0.706 0.035s0.221-0.501 0.035-0.706zM12 19h-4v-4.5c0-0.276 0.224-0.5 0.5-0.5h3c0.276 0 0.5 0.224 0.5 0.5v4.5zM16 18.5c0 0.276-0.224 0.5-0.5 0.5h-2.5v-4.5c0-0.827-0.673-1.5-1.5-1.5h-3c-0.827 0-1.5 0.673-1.5 1.5v4.5h-2.5c-0.276 0-0.5-0.224-0.5-0.5v-9.123l5.7-6.3c0.082-0.091 0.189-0.141 0.3-0.141s0.218 0.050 0.3 0.141l5.7 6.3v9.123z"/> </symbol><symbol viewBox="0 0 500 500" id="icon-ladder"><title>ladder</title> <path fill-rule="evenodd" clip-rule="evenodd" d="M111,358.1c0,0,224.6,0,224.6,0l22.7-91.5c0,0-224.6,0-224.6,0L111,358.1z
	 M195.4,17.1c2.3-9.2-3.3-16.6-12.5-16.6c-9.3,0-18.5,7.4-20.7,16.6L46.8,482.9c-2.3,9.2,3.3,16.6,12.5,16.6
	c9.3,0,18.5-7.4,20.7-16.6l22.7-91.5c0,0,224.6,0,224.6,0l-22.7,91.5c-2.3,9.2,3.3,16.6,12.5,16.6c9.3,0,18.5-7.4,20.7-16.6
	L453.2,17.1c2.3-9.2-3.3-16.6-12.5-16.6c-9.3,0-18.5,7.4-20.7,16.6l-22.7,91.5c0,0-224.6,0-224.6,0L195.4,17.1z M141.8,233.4h224.5
	c0,0,22.7-91.5,22.7-91.5c0,0-224.6,0-224.6,0L141.8,233.4z"/> </symbol><symbol viewBox="0 0 20 20" id="icon-layers"><title>layers</title> <path d="M10 12c-0.066 0-0.132-0.013-0.194-0.039l-9.5-4c-0.185-0.078-0.306-0.26-0.306-0.461s0.121-0.383 0.306-0.461l9.5-4c0.124-0.052 0.264-0.052 0.388 0l9.5 4c0.185 0.078 0.306 0.26 0.306 0.461s-0.121 0.383-0.306 0.461l-9.5 4c-0.062 0.026-0.128 0.039-0.194 0.039zM1.788 7.5l8.212 3.457 8.212-3.457-8.212-3.457-8.212 3.457z"/> <path d="M10 15c-0.066 0-0.132-0.013-0.194-0.039l-9.5-4c-0.254-0.107-0.374-0.4-0.267-0.655s0.4-0.374 0.655-0.267l9.306 3.918 9.306-3.918c0.254-0.107 0.548 0.012 0.655 0.267s-0.012 0.548-0.267 0.655l-9.5 4c-0.062 0.026-0.128 0.039-0.194 0.039z"/> <path d="M10 18c-0.066 0-0.132-0.013-0.194-0.039l-9.5-4c-0.254-0.107-0.374-0.4-0.267-0.655s0.4-0.374 0.655-0.267l9.306 3.918 9.306-3.918c0.254-0.107 0.548 0.012 0.655 0.267s-0.012 0.548-0.267 0.655l-9.5 4c-0.062 0.026-0.128 0.039-0.194 0.039z"/> </symbol><symbol viewBox="0 0 3177.9 951.6" id="icon-logo"><title>logo</title> <path fill="#FFFFFF" d="M2175.2,557.8c1.5-6.4,3.2-12.7,4.4-19.2c1.1-6.1,2.5-12.4,2.5-18.5c-0.1-12.4,7.6-25,18.8-30.1
	c8.8-4,17.2-9.5,27.3-7.1c4.7,1.1,9.5,3,13.3,5.8c5.8,4.3,6.2,9.3,3.1,15.9c-6.4,13.4-12.8,26.8-19.2,40.2c-0.3,0.6-0.3,1.5-0.8,1.8
	c-12,9-15.1,25.7-28.8,33.2c-1.7,0.9-3.3,2.4-5.1,3.1c-4.2,1.6-7.6,0.7-10-3.6C2177.1,572.5,2175.5,565.6,2175.2,557.8z"/> <path fill="#FFFFFF" d="M663.3,489c-10.6-11.8-12.4-24.7-7-36.6c6.2-13.5,16.2-23.7,27.7-32.2c18.2-13.5,36.2-27.4,57.5-35.8
	c0.3-0.1,0.6-0.2,0.9-0.4c19.3-14.9,42.2-22.6,64.1-32c12.1-5.2,25-9.5,37.9-12.1c17.9-3.5,36.3-5.3,54.5-7.3
	c4.8-0.5,10.1-0.2,14.7,1.2c13.4,4.1,24.2,1,33.1-9.8c3.6-4.4,7.4-8.6,11.4-12.6c10.9-10.9,23-20.1,37-26.8
	c15.3-7.4,30.3-15.4,45.6-22.8c4.7-2.3,9.9-4.1,15.1-4.9c26.5-4.1,51.9-12,76.9-21.4c2.2-0.8,4.4-2.1,6.6-2.2
	c17.6-0.2,35.1-2.9,52.8,0c9.1,1.5,12.3,7,12.9,19.3c0.4,8.5-5.6,14.1-14.6,14.2c-14.5,0.3-28.4,2.8-42.1,7.7
	c-4.1,1.5-9.3,1.4-13.7,0.6c-16-2.8-31.5-2.3-47.2,3c-10.6,3.6-22.2,4-33.2,6.3c-4,0.9-8.5,2.3-11.5,4.9
	c-8.1,7.4-16.5,13.8-26.6,18.8c-11.2,5.5-21,14.1-31,21.7c-2,1.5-2.6,5-3.9,7.6c2.5,1.2,5,3.4,7.5,3.5c11.3,0.6,22.7,0.4,34,0.9
	c6.3,0.3,12.6,1.1,18.7,2.6c13.2,3.2,26.8,6,39.4,11c12,4.7,23.1,11.8,34.2,18.5c2.8,1.7,4.6,5.7,5.9,9c4.4,11.5,8.3,23.2,12.4,34.8
	c0.3,0.9,0.6,1.9,0.7,2.9c0.8,16.9-2.4,33.3-10,48.3c-5.7,11.3-13.3,21.5-19.7,32.4c-5.4,9.1-11.8,16.4-21.8,21.1
	c-12.6,5.9-24.5,13.2-35.8,21.7c-7.7,5.9-17.9,8.7-27.1,12.4c-10.8,4.4-21.2,9.7-33.2,10.5c-5.9,0.4-10.7,3.3-13.1,9.3
	c-2.4,6-7.2,8.6-13.5,8.3c-6.7-0.4-10.8-3.9-13.2-10.4c-2.4-6.5-5.6-12.8-8.5-19.1c-3.2-7.1-1.9-9.4,5.9-10.6c2.9-0.5,6-0.7,8.8-1.8
	c5-1.9,9.7-1.9,14.6,0c6.2,2.3,12.3,1.4,18.7,0.4c14.9-2.5,27.3-10.2,39.5-18.3c0.6-0.4,1.2-0.7,1.6-1.2
	c5.1-7.5,11.4-13.5,20.3-16.6c1.9-0.7,3.6-4.9,3.6-7.5c0-7,2.4-12.9,5.6-18.8c4.4-8.2,5-16.7,3.5-26.1c-1.8-11.4-2-23.2-1.8-34.7
	c0.1-7.1,0.3-13.9-3.4-20.3c-1.3-2.3-2.7-4.9-2.7-7.4c0-8.6-3.8-14.8-9.5-21c-3.5-3.8-6.8-7.3-11.8-8.6c-18.2-4.7-36.6-6.7-55.4-3.9
	c-8.2,1.2-14.4,4.6-17.7,12.6c-1.4,3.3-3.3,6.6-5.6,9.5c-7.3,9.3-11.5,19.4-10.7,31.4c0.1,1.3,0,2.8-0.5,3.9
	c-4,9.3-7.7,18.9-12.4,27.9c-2.5,4.8-5.2,9.2-4.7,14.9c0.4,4.3-1.5,7.4-4.9,10.2c-7.3,6-9,13.4-5.6,22.2c3.5,9.1,2.9,14.1-5.1,20
	c-6.6,4.9-9.2,10.9-10.2,18.5c-0.9,7.4-3.8,13.9-8.1,20.1c-6.7,9.6-10.7,20.6-13.2,32.2c-1.1,5-3.2,10.1-6,14.4
	c-8.3,12.7-11.5,26.6-11.9,41.5c-0.2,9-0.7,18-2.1,26.8c-0.6,4-3.7,7.6-5.8,11.2c-3.5,6-7.8,11.6-10.7,17.8
	c-5.7,12-10.5,24.5-16.1,36.6c-2.9,6.4-5.5,12.8-5.4,20.1c0.1,5.9-2.6,10-7.6,13.1c-6.8,4.3-13.5,8.6-19.7,13.6
	c-5.1,4.1-9.2,9.4-13.8,14.1c-2.5,2.5-5,5.9-8.2,7c-6.8,2.3-12.4,6-17.8,10.6c-11.5,9.8-25.6,12.2-40.1,12.8
	c-7.2,0.3-14.6,0.8-21.7,2.2c-5.9,1.2-11.1,1.1-16.2-2.4c-2.4-1.7-5.2-3.6-8-3.8c-16.9-1.6-29.9-11.8-44.4-19
	c-15.4-7.6-25.6-19.5-35.4-32.7c-5.8-7.7-9.8-15.6-9.4-25.6c0.3-7-0.9-14-0.5-20.9c0.8-13.4,3.1-26.3,11.5-37.6
	c2.8-3.8,3.9-9.2,4.8-14c1-5.8,4.3-8.9,8.8-12.4c19.7-15.3,47.7,2,53.7,19.8c1.2,3.5,1.1,7.8,0.5,11.5c-1.1,6.8-3,13.5-4.5,20.3
	c-0.6,2.6-0.5,5.4-1.3,7.9c-3,9.6-12.5,11.8-19.4,4.4c-2.9-3.2-5.1-7-8.1-10.1c-2.2-2.3-4.9-4.7-7.8-5.8c-6.3-2.4-11.7,0.5-12.9,7.1
	c-3,16.1-2.2,32,5.3,46.8c1.5,3,4.7,5.6,7.7,7.4c10.9,6.5,21.4,13.2,30.3,22.5c6.2,6.5,15.8,7.2,24.4,6.2c8.5-1.1,16.9-3.4,24.3-8.5
	c3.2-2.1,7.2-3.8,11-4c13.5-1,22.7-8.6,28.2-19.6c7.8-15.7,17.8-29.6,28.4-43.3c3.6-4.6,6.1-10.3,8.1-15.8
	c3.2-9.1,5.6-18.5,8.3-27.8c1.5-5,3.6-9.3,9-11.2c4.4-1.5,5.1-5.1,5.7-9.4c1.8-12.8,4.2-25.6,6.8-38.3c0.6-3,3.4-5.6,5-8.5
	c2.4-4.6,5.9-9.1,6.7-14.1c1.5-10.5,3.8-20.8,6.4-31.1c2.3-9.4,5.6-18.4,8.8-27.4c2.1-5.8,5.2-10.6,9.8-14.8
	c8.7-7.8,13.2-17.4,11.2-29.3c-0.2-1-0.5-2.3,0-2.9c7.5-9.4,4.9-22.3,11.4-32.2c2.1-3.2,3.2-7.4,3.3-11.2c0.2-5.8,1.6-10.2,7-13.3
	c5.7-3.3,8.2-8.6,7-15.3c-1.1-5.5,1.9-9.1,4.9-13.4c10.1-13.9,19.7-28.2,29-42.7c3.5-5.4,0.7-9.9-5.9-10c-3.6-0.1-7.3,0.7-10.9,1.1
	c-5,0.6-9.9,2-14.8,1.9c-13.7-0.3-26.1,3.7-38.7,8.5c-20.5,7.9-41.7,13.9-62,22.3c-12.7,5.2-25.2,11.9-35.9,20.4
	c-8.8,7-16.5,15.2-26.4,21c-4.9,2.9-9.3,7.6-12.6,12.4c-5.3,7.8-11.1,14.8-18.3,20.9c-8,6.8-16.7,13.6-17,25.9
	C666.7,485.1,664.8,486.7,663.3,489z"/> <path fill="#FFFFFF" d="M2411.2,637.8c-4.3,0.4-8.8,0.2-12.9,1.4c-15.5,4.4-19.9,24.5-8,36.2c3.3,3.3,7.1,6,10.5,9.3
	c11.4,10.9,21.2,23,26.9,37.9c4,10.3,3.6,19.6-3.6,29.1c-5.7,7.6-9.3,16.8-13.9,25.2c-5.3,9.7-12.7,17.7-21.3,24.5
	c-1.4,1.1-3.8,1.7-5.6,1.6c-9-0.4-15.6,4.7-22.8,9c-8.8,5.3-17.8,10.3-27.2,14.4c-5,2.2-11,3-16.6,3c-17.5,0-34.4-3.7-50.6-10.1
	c-7.5-3-13.8-8-18-15.2c-1-1.7-2.2-3.5-3.8-4.6c-13.5-9.8-12.5-33.8-5.6-48.2c3.7-7.8,7.5-15.5,10.9-23.4
	c3.6-8.2,9.4-12.5,18.4-12.7c21.5-0.4,37.8,15.7,38,37.5c0,3.3,0.6,6.6,1,9.9c1,9.3-2.5,17-8.8,23.5c-5.5,5.6-11.6,4.7-15.5-2.3
	c-2.1-3.7-2.6-8.3-4.7-12c-1.5-2.6-4-5.6-6.7-6.3c-3.9-1.1-6.7,2-8.5,5.5c-4.8,9.7-1.5,21,8.2,25.8c15.4,7.5,32,8.5,48.8,6.7
	c3-0.3,6.2-2.5,8.7-4.6c6.5-5.2,12.8-10.7,18.7-16.4c2.3-2.2,4.2-5.3,5.1-8.4c1.9-6.3,3.4-12.8,4.2-19.4c0.8-6.3-0.8-12-8.1-14.2
	c-1.6-0.5-3.4-1.1-4.4-2.3c-7-9.2-13.9-18.5-20.4-28c-1.8-2.7-2.2-6.2-3.6-9.3c-6-13.4-5-25.8,4.6-37.3c2.3-2.8,4.1-6.2,5-9.7
	c4.3-15.8,14.1-25.1,29.8-30.2c21-6.9,42-10.3,63.8-5.8c18.6,3.9,32.9,14.6,41.8,31.2c2.8,5.1,2.7,12.3,2.3,18.4
	c-0.4,5.8-3.8,10.9-10,12.4c-6.3,1.5-12.5-0.3-15.9-5.8c-2.9-4.9-5.3-10.9-5.6-16.6c-0.9-14.9-3.8-18.4-19-19.2c-2-0.1-4,0-6,0
	C2411.2,638.1,2411.2,638,2411.2,637.8z"/> <path fill="#FFFFFF" d="M2666.2,683.2c0,9,0.2,17.9-0.1,26.9c-0.4,12.1-6.6,21.6-15.6,28.9c-5.6,4.5-12.9,4.8-20.1,3.5
	c-18.7-3.2-37.4-6.2-56.1-9.6c-8.2-1.5-16.2-3.7-24.3-5.6c-10-2.3-17.2-1.7-20.7,10.7c-1.4,4.8-3.4,9.4-5.1,14.1
	c-3.7,10.2-2.7,20.4,0.4,30.4c3.8,12.5,10.4,19.6,25.3,20.8c15.4,1.3,28.2-1.4,40.3-10.2c1.9-1.4,4-2.6,6.2-3.3
	c8.1-2.7,14.9-7.1,19.7-14.5c3-4.6,8.1-5.6,13.2-6.1c6.6-0.7,10.3,2.8,9.2,9.4c-0.6,3.5-2,7.2-4,10.1c-8.7,11.9-18,23.3-30.3,31.6
	c-5.1,3.4-11.3,5.9-17.3,7.1c-16,3.1-32.2,6.1-48.4,7.3c-13.5,1-27.1-3.1-37.6-11.3c-17.4-13.5-31.6-30.2-33.8-53.3
	c-0.9-9.7,0.4-20.1,3-29.5c2.6-9.5,7.6-18.4,12.5-27.1c3.7-6.6,6.5-13,6.2-20.7c-0.3-6.7-0.4-13.4,4.9-18.8c1.1-1.1,1.5-2.9,2.1-4.5
	c8.9-25.8,30.3-37.5,53.3-47.6c3.8-1.7,7.9-1.7,10.2,3.1c2.1,4.5,6.1,5.2,10.2,4.1c6.4-1.7,13.1-3.2,18.8-6.3
	c6.1-3.3,11.6-3.4,18.2-2.1c13.7,2.9,25.6,9,36.2,17.9c1.3,1.1,2.5,2.4,3.9,3.1C2664.1,650.4,2665.3,666.7,2666.2,683.2z
	 M2602.5,715c4.9-1.5,10-1.6,12.5-4.3c6.3-6.6,9.9-14.9,8.1-24.6c-0.9-4.9-1.7-9.8-2.3-14.7c-1.2-9.3-17.7-27.9-26.7-29.9
	c-1-0.2-2-0.4-3-0.3c-12.7,1.4-25,3.9-34.1,14.1c-8,8.9-11.8,19.8-15.2,31c-3.7,12-2.1,15.7,10.2,18.6
	C2568.9,708.9,2586,711.8,2602.5,715z"/> <path fill="#FFFFFF" d="M2204.3,661.3c1.4,10.1-5.4,17.7-13.4,24.8c-3.9,3.5-8.1,7-11.2,11.2c-2.6,3.6-4.7,8-5.4,12.4
	c-2,12.7-5.3,24.7-14.6,34.3c-1.8,1.8-3.4,4.3-4.1,6.7c-3.5,11.1-6.7,22.3-10,33.5c-0.5,1.6-0.7,3.3-0.9,4.9
	c-0.5,6.6,1.9,8.4,8.4,6.5c2.2-0.7,4.3-1.8,6.4-2.7c12-5.3,22.9-12,31.5-22.3c2.5-2.9,6.2-5,9.6-6.8c3.8-2,7.9-1.8,11.3,1
	c3.6,3,3.2,6.9,2.2,11c-2.8,12.4-11.9,19.1-22.3,24c-5.7,2.6-10.1,5.9-13.9,10.8c-9.6,12.5-23.9,16.3-38.1,20.2
	c-1.2,0.3-2.7,0.1-4-0.2c-8.5-1.4-17.1-2.8-25.6-4.5c-15.8-3.2-25.2-13.6-30.4-28.2c-3-8.3-0.6-15.5,3.8-22.7
	c10.4-17.1,21.4-33.8,30.2-51.7c6.5-13.3,9.7-28.3,14.6-42.4c1.7-4.9,4.6-9.4,6.8-14.2c1.8-3.9,4.1-7.8,4.7-11.9
	c0.9-5.4-2.8-8-8.2-6.4c-2.2,0.6-4.4,1.8-6.1,3.2c-11.3,9.1-24.8,13.8-37.8,19.6c-9.7,4.3-15.8,2.1-19-4.5c-3.3-6.8-0.6-14.2,8-19
	c4.9-2.7,10.3-4.5,15.7-6.2c10.8-3.4,21.9-5.6,32.4-9.7c16.8-6.6,34.1-8.9,51.9-8.4c8,0.2,13.7,3.7,18,10.6
	C2203.6,647.9,2204.3,649.1,2204.3,661.3z"/> <path fill="#FFFFFF" d="M1792.3,764c1.3-15.2,2.7-30.5,4-45.7c0.1-1.3,0.3-2.8,1-3.8c6-9,9.8-19.5,18.3-27c3.6-3.2,6.4-7.7,8.5-12.1
	c5.4-11.4,12.2-21.4,23.5-27.7c0.9-0.5,1.7-1.1,2.4-1.8c18-20.7,43.2-20.5,67.4-22.8c1.3-0.1,3-0.2,3.9,0.5c6.6,5.5,13.2,11,19.2,17
	c2.2,2.2,0.9,5.3-2.1,6.4c-2.8,1-5.8,1.7-8.7,1.9c-5,0.3-10,0.3-15,0c-6.9-0.5-12.2,1.6-16.6,7.1c-3.7,4.7-8.2,8.8-12.4,13
	c-4.1,4.1-6.6,8.5-8.3,14.3c-2,7.2-6.6,13.7-9.8,20.5c-4.5,9.3-8.2,18.7-7.9,29.5c0.1,4.6-2.4,9.6-4.7,13.9
	c-4.7,9.1-7.7,18.5-7.3,28.7c0.2,3.6,0.8,7.3,2,10.7c2.4,6.6,6,8.6,13.1,8.1c10.1-0.8,19.9-3.5,28.3-9
	c29.6-19.2,24.3-14.1,33.4-42.7c4.3-13.3,8.3-26.6,10.2-40.5c0.3-2,0.5-4.3,1.7-5.7c6.3-7.9,6-17.2,6.2-26.6
	c0.2-10.2,5-19.2,9.2-28.2c1.5-3.3,3.8-6.6,4.1-10.1c0.6-9.4,5.6-17,8.8-25.3c0.4-0.9,0.6-2.1,1.3-2.7c8.3-7.4,11.1-17.7,15.2-27.4
	c2.4-5.7,4.4-11.1,4-17.2c-0.9-13.2,3-24.7,10.4-35.7c6.2-9.4,11-19.8,16.5-29.7c8-14.5,19.9-24.6,35.4-30.4c0.9-0.4,2-0.6,2.7-1.2
	c5.4-4.7,12.2-6,18.5-8.7c8.2-3.5,16.6-4.3,24.9-6.3c16.3-4,32.6-3.1,48.4,1.6c10.6,3.2,20.8,3.6,31.5,1.7c3.3-0.6,6.6-0.9,9.9-1
	c10.2-0.6,18.1,9,14.3,18.3c-2.3,5.7-6.2,10.8-9.9,15.8c-3,4-6.4,7.7-10.2,10.9c-8.4,7.2-17.7,5.4-21.6-4.9
	c-2.5-6.6-6.8-9.4-12.6-11.5c-5-1.8-10.2-3.1-15.1-5.3c-16.6-7.4-31.2-1.2-45.6,6.4c-5.6,3-8.2,8.5-11,13.9c-3.5,6.8-7.3,13.4-11,20
	c-0.8,1.4-1.9,2.7-2.5,4.3c-4.5,10.7-8.9,21.4-13.2,32.2c-3.2,8.1-5.7,16.2-4.7,25.2c0.4,4-1.2,8.6-3,12.3
	c-6.6,13.8-13.7,27.4-20.7,41c-1.2,2.4-3.2,4.3-4.2,6.8c-2.3,5.5-5.6,11.1-5.9,16.7c-0.5,10.2-5.4,17.5-12.1,24.2
	c-7,7-11.8,14.8-13.1,25.1c-1.8,14-6.8,27-14.5,39c-1.7,2.6-2.7,6.2-2.6,9.3c0.1,7.4-2.6,13.5-6.7,19.4c-3.2,4.6-6.4,9.4-8.5,14.6
	c-4.1,10.6,2.4,18,13.5,16.1c8.2-1.4,14.9-5.9,20.5-11.7c7.6-7.8,16.1-14.9,21.2-25c2.1-4,5.9-7.2,9.1-10.6
	c7-7.5,15.5-13.8,19.8-23.6c0.4-0.9,1.1-1.6,1.8-2.4c4.1-4.5,14.4-6.2,18.3-3c4,3.3,4.5,13.4,1,18.5c-6.7,9.9-13.3,19.8-20.1,29.7
	c-1.7,2.4-3.8,4.6-5.8,6.7c-1.4,1.4-3.9,2.2-4.6,3.8c-3.1,7.5-10.4,11-15.4,16.5c-12.3,13.5-28.2,21.2-44.6,27.6
	c-18.4,7.2-43.6-0.9-50.2-19c-1.9-5.4-4.3-5.5-9.3-2.1c-2.2,1.5-4.2,3.2-6.3,4.9c-6.5,5.5-13.9,8-22.3,10c-12,2.9-22.8,2.5-34-2.1
	c-1.8-0.7-4-1.2-5.9-0.9c-12.8,1.7-22.1-5.4-31.7-11.9c-1.3-0.9-2.6-2.1-3.5-3.5C1795.5,792.8,1791.2,774.3,1792.3,764z"/> <path fill="#FFFFFF" d="M1061.8,764.1c0.9-3.2,1.9-8.4,3.9-13.3c3-7.2,5.2-14.3,5-22.2c-0.2-11.1,5.9-19.9,13.2-27.1
	c9.8-9.6,17-20.3,20.5-33.6c2.4-9.1,9.1-15.1,17.5-17.8c14.4-4.7,25.2-14.1,36.6-23.4c13.5-11.1,29.7-12.4,46.2-6.5
	c2.2,0.8,4.3,1.9,6.5,2.6c4.8,1.5,9.2,0.8,13-2.7c6.6-6.1,14.1-6.4,22.4-4.2c4.7,1.3,9.8,1,14.7,1.7c2.9,0.4,6.3,0.5,8.4,2.1
	c6.5,5.1,13,3.4,19.9,1.6c5.7-1.5,11.6-2.7,17.5-2.7c2.6,0,6,2.7,7.6,5.1c2.1,3.2,1.4,7.1-1.3,10.2c-3.7,4.2-8.2,6.4-13.8,7.2
	c-11.4,1.5-11.5,1.9-14.5,13c-1.3,4.8-3.3,9.4-5.2,14c-3.8,9.2-8.4,18.1-11.4,27.5c-3.5,11.2-9.4,21.2-14.8,31.4
	c-1.6,3.1-4.8,5.5-7.6,7.8c-6,4.9-9.2,10.7-9.9,18.7c-0.7,8.2-3.2,16.2-5,24.3c-0.3,1.3-0.9,2.5-1.1,3.8c-0.5,4.6,2.5,6.9,6.9,5
	c2.4-1,4.4-3,6.7-4.3c4.1-2.3,8-4.9,12.4-6.2c2.8-0.8,7.5-0.7,8.9,1c1.9,2.3,2.8,7.1,1.8,9.9c-1.6,4.5-4.7,8.9-8.1,12.4
	c-7.1,7.4-14.8,14.4-22.4,21.3c-10.4,9.3-32.9,9.2-43.9,0.4c-7.6-6.1-13.7-12.5-12.4-23.3c0.3-2.1-0.8-4.6-1.8-6.7
	c-1.5-3.2-4.3-4-7.5-2.5c-0.9,0.4-1.9,0.9-2.5,1.7c-7.5,10.2-18.9,15.3-28.9,22.2c-4.2,2.9-9.4,5.8-14.4,6.2
	c-10.2,0.8-20.7,0.7-30.2-4.3c-0.6-0.3-1.2-0.7-1.8-0.9C1068.9,806.9,1065.1,786.9,1061.8,764.1z M1230.9,642.3
	c-1.2-1.6-2.1-4.1-3.8-5c-2.5-1.3-5.7-2.2-8.5-2.1c-7.3,0.3-14.7,0.5-21.8,2c-12.8,2.7-24,8.1-29.5,21.2
	c-7.5,17.8-15,35.6-22.7,53.2c-3.1,7-7.2,13.5-10.1,20.5c-4.2,10.1-7.8,20.4-11.4,30.7c-2.4,6.9-3.6,14-9.2,19.6
	c-2.9,2.9-1.5,6.8,2.3,9.2c4.5,2.8,8.9,1.9,13.2-0.5c8.1-4.5,16.3-9,24.4-13.6c1.4-0.8,2.8-1.9,3.8-3.2c10.5-12.8,22.2-24.8,29.6-40
	c3.9-8.1,8.9-15.6,13.3-23.5c2.9-5.2,5.7-10.5,8.1-15.9c6.9-15.4,11.3-31.9,19.7-46.7C1229.1,646.7,1229.8,644.8,1230.9,642.3z"/> <path fill="#FFFFFF" d="M1503.7,687.4c-4-0.2-8-0.3-12-0.8c-8.4-0.9-15.3-4.4-19.7-11.9c-3.3-5.6-7.1-11.1-14.7-9.9
	c-7,1.2-10.7,7-12.5,13c-2.1,6.9-5.1,12.6-10.6,17.5c-4.6,4-6.1,9.9-7,16.1c-0.7,4.8-2.8,9.4-4.8,13.8c-4.2,9-8.7,17.8-13.2,26.7
	c-1.3,2.7-2,6.2-4.2,7.8c-7.8,5.8-8.3,14-10.2,22.6c-2.3,10.2-7.1,20.1-12.7,29.1c-6.6,10.6-19,14.3-30.8,10.4
	c-9.3-3.1-18.2-3.3-27.4-0.5c-1.9,0.6-3.9,1.1-5.8,1.4c-4.5,0.8-8.7,0.7-11.6-3.6c-2.8-4.1-2.9-9.7,0-14.2c0.2-0.3,0.3-0.6,0.6-0.8
	c10.9-7.1,15.1-17.8,17-30.1c0.4-2.4,2.7-4.5,4.2-6.7c4.5-7,9.1-13.9,13.6-20.9c1.5-2.2,2.8-4.7,4.7-6.4
	c16.7-15.7,21.6-37,27.5-57.7c0.7-2.5,0.7-5.3,0.6-7.9c-0.3-7.5-4.1-11.6-11.8-12.2c-3.6-0.3-7.6-0.4-10.9,0.8
	c-10.9,4-21-0.7-31.4-2.1c-5.5-0.8-7.1-5.8-3.2-9.6c3.7-3.5,8.7-5.7,13.4-7.9c4.4-2.1,9.5-2.8,13.8-5.1c10-5.5,20.9-6.1,31.9-7
	c4.8-0.4,10-1.2,14.2-3.4c11.1-5.7,23.2-3.4,30.1,7.4c2.9,4.4,4.5,9.6,6.8,14.4c2.5,5.3,5,6,9,1.9c3.7-3.8,6.5-8.5,10.4-12.1
	c6.3-5.8,13-11.4,20-16.2c5.5-3.8,11.6-2.9,16.5,1.9c7.3,7.1,16.5,12.1,20.7,22.5c1.6,4,7,6.8,11.1,9.5c8.5,5.4,11.6,11.4,9.9,20.9
	c-1.1,6.5-4,9.4-10.6,9.7C1511.1,688.2,1507.4,687.6,1503.7,687.4C1503.7,687.4,1503.7,687.4,1503.7,687.4z"/> <path fill="#FFFFFF" d="M1707.3,791.6c4.2-1.9,7.3-3.2,10.3-4.8c5-2.6,9.8-5.6,14.9-8.1c3.1-1.6,6.4-2.3,9.2,0.6
	c2.8,2.9,4,6.5,2,10.1c-2.7,4.9-5.6,9.8-9.3,13.9c-5.6,6.1-12.3,11.2-17.9,17.3c-11.7,12.4-36.6,13.4-49.2,2.2
	c-6.6-5.9-11-12.4-10.3-21.5c0.1-1.3-0.2-2.7-0.6-3.9c-1.9-7.5-5.4-8.7-11.3-3.8c-2.3,1.9-4.4,4.1-6.3,6.4c-3.5,4.6-7.8,8-13.4,9.9
	c-2.7,0.9-5.2,2.9-7.6,4.7c-13.3,10.3-27.6,9.8-42.4,4.1c-4-1.5-7.9-3.4-12-4.8c-7.1-2.3-12.5-6.7-15.5-13.3
	c-3.5-7.5-6.2-15.5-8.5-23.4c-2.3-8.3-0.8-16.2,2.8-24.2c2.5-5.6,4.3-12.1,4.2-18.2c-0.1-12.3,4.9-22.4,13.2-30.2
	c9.4-8.8,15.2-19.4,19-31.1c3.5-10.8,10.2-17.9,20.5-21.5c12.9-4.5,23.4-12.3,33.1-21.6c7.8-7.5,17.7-10.9,28.2-10.5
	c7.8,0.3,15.7,2.5,23.3,4.7c5.9,1.7,11.2,2.2,15.8-2.3c5.7-5.6,12.4-5.3,19.6-4c5.8,1.1,11.8,1.2,17.7,1.9c2.6,0.3,5.6,0.5,7.5,2
	c6.7,5.3,13.9,4.9,20.7,1.6c5.5-2.7,10.8-2.6,16.4-2.8c3.8-0.1,6.5,1.2,8.1,4.5c1.8,3.8,2.3,7.7-0.5,11.3c-3.4,4.4-7.7,7.6-13.5,7.6
	c-10,0-13.9,5.5-15.6,14.6c-0.9,4.8-3.6,9.2-5.4,13.8c-4.4,11.1-8.6,22.2-13,33.3c-5,12.7-10.4,25.1-21.4,34.1
	c-4.3,3.5-6.6,7.8-7.4,13.6c-1.2,9.8-3.6,19.5-5.3,29.3C1707,785.3,1707.3,787.5,1707.3,791.6z M1693.4,638.9
	c-7.8,0.8-15.6,0.9-23,2.7c-14,3.3-24.5,10.2-29.3,25.4c-4.9,15.5-12,30.3-18.5,45.3c-3.6,8.2-8.6,15.8-11.9,24
	c-4.4,11.1-7.6,22.6-11.7,33.8c-1.6,4.3-3.8,8.5-6.3,12.4c-2.1,3.3-3.8,6.5-1.1,10c2.8,3.8,6.7,4,10.8,2.8c1.9-0.5,3.8-1.4,5.5-2.4
	c7.5-4.3,15-8.6,22.3-13.2c2.5-1.6,4.5-3.9,6.6-6c14.9-15.2,24.8-33.7,34.9-52.1c3.2-5.8,7.2-11.2,9.8-17.3
	c5.8-13.8,10.8-27.8,16.3-41.7c1.7-4.3,4.2-8.3,6.1-12.5c2.6-5.7,1.2-8.7-4.8-10.3C1697.2,639.2,1695.2,639.1,1693.4,638.9z"/> <path fill="#FFFFFF" d="M615.3,500.1c-37.8,6.2-28.3-29.8-43.7-51.8c-2.9-4.1-10.3-13-14-4.2c-4,9.6,11.6,31.5,16.1,40.9
	c-10.1,7.7-33.5-8-41.3-13.8c-4.1-3.1-30.3-23.6-19.3-1c20.3,41.7,51.3,84.4,49.8,132.5c-18-0.8-17-32.5-28.2-42.9
	c-18.9,30.6-22.1-27.1-25.9-40.1c-9.4,6.1,1.2,24.2-8.7,28.3c-14.9,6.1-17.6-26.7-18.2-32.6c-0.5-5.3-0.4-33.1-10.9-31.8
	c-7.7,0.9-5.2,22.4-5.8,28.1c-29.5-12.8-9.5-42.4-20.2-65.4c-8.4,7.8-1.1,18.1-6,27c-5.9-2.7-19-25.3-22.8-24.7
	c-11.1,2-24,37.5-29.3,46.6c-15.9,27.1-17.8,68.2-20.4,98.8c-3.7,44.7,3.1,88.8,11.7,132.5c4.6,23.2,22,84.8,22,84.8h-73.1
	c0,0-4.2-48-5.8-70.2c-3.1-43.2-3.6-87,2.5-130c5.7-40.2,12.6-82.9,31.4-119.3c3-5.8,28.3-39.2,26.1-43.6
	c-5.7-11.5,23.5-34,27.8-44.4c-13.1-13.8-56.1,66.3-59.3,14c-10.7,1-14.3,16.7-27.8,17.9c-17.2,1.5-11-13.5-11-24.6
	c-11.4-0.1-16.6,18.7-27.8,22.1c-21.7,6.6-15.2-11.6-9.9-22.3c-13.4-2.5-18.9,23.9-36.5,18.6c-6.9-2.1-7.2-10.7-15.4-10.1
	c-8.9,0.6-17.8,1.2-26.8,1.8c-0.6-10.4,48.4-29.1,58.2-36.5c21.7-16.3,47.2-26.1,74.6-25.4c9.8,0.2,56.3,14.5,61.1,5.4
	c-10.1-20.6-30.5-18.4-2.3-26.1c-5.7-6.4-60.5-25.1-26.6-37.2c0.3-11.2-41.8-20.5-50.5-29.8c-19-20.3,53.6-8.4,63.9-4.6
	c27.9,10.2,44.4,31.1,54.7,58.4c11.2,29.8,27.3,16.2,45.4-4.4c18.1-20.7,39.4-37.4,66.9-40.5c13.9-1.6,30.1-5,43.9-1.1
	c12,3.3-3.7,20.2-6.7,25.2c-6.9,11.4-14.1,22.7-23.9,31.8c-3.2,3-21,5.3-19.6,7.3c8.4,11.6-7.4,25.8-14.7,33.3
	c-9.2,9.5-16.9-7.4-26.4-9.2c38.7,50.4,117.8,40.6,144.3,104c4.1,9.9,12,23.7,12.8,34.5c1.6,20.7-23-10.4-24-12.3
	c-1.3-2.5-11-30-18.1-24.8C601.4,473.6,613.9,494.2,615.3,500.1C605.4,501.7,614.5,496.7,615.3,500.1z"/> <g> <path fill="#FFFFFF" d="M433.4,487.1l-0.4-0.2c-5.8-2.6-10.2-8.1-16.8-16.7c-3.9,6.8-8.1,15.9-10.1,20.3c-2.4,5.2-4.3,9.4-6,12.3
		c-4.9,8.3-8.3,18.5-10.8,29.5c17.5-6.4,34-14.9,49.1-25.3C435,500.6,433.8,493.7,433.4,487.1z"/> <path fill="#FFFFFF" d="M320.5,545.1c5-21,11.7-41.2,21.5-60.2c1.3-2.5,3.7-6,8.5-13c3.5-5.1,10.8-15.7,14.5-22
		c-2,0.5-4.1,0.8-6.2,0.8c0,0,0,0,0,0c-4.8,0-11.5-1.4-16.6-8.1c-4.5,3.8-10.5,7.3-18.7,8c-1.2,0.1-2.5,0.2-3.6,0.2
		c-9.9,0-15.7-4.1-18.8-7.6c-0.7-0.7-1.3-1.5-1.8-2.3c-3.2,2.8-6.9,5.2-11.5,6.6c-4.5,1.4-8.5,2.1-12.2,2.1c-7.8,0-14.5-3.3-18.4-9
		c-4.3,2.6-9.4,4.5-15.6,4.5c-3,0-6-0.5-8.9-1.4c-6.8-2.1-10.8-6.5-13.1-9.3c-2.6,0.2-5.2,0.4-7.8,0.5c-5.3,0.4-10.6,0.7-15.9,1.1
		l-15.1,1l-0.9-15.1c-0.9-16.1,16.5-25.4,47.3-40.5c6.2-3.1,14.8-7.2,16.8-8.8c24.7-18.6,52.7-28.4,80.9-28.4c1,0,2,0,3.1,0
		c4.1,0.1,9.7,1.3,19.3,3.3c3.2,0.7,6.9,1.5,10.6,2.2c-0.8-2.5-1.1-5.3-0.4-8.5c0.1-0.6,0.3-1.2,0.5-1.7
		c-13.2-7.5-25-16.6-24.1-30.3c0.2-2.9,0.9-5.5,2.2-8c-3.4-1.5-7-3-9.7-4.1c-11.9-4.9-22.1-9.1-28-15.4c-9.4-10-7.6-18.9-5.7-23.3
		c5.8-13.5,23.4-13.5,30.9-13.5c18.5,0,46.4,4.7,54.8,7.8c29.9,11,50.6,32.9,63.6,67.2c1.4,3.7,2.6,5.8,3.4,6.9
		c2.4-1.4,7.3-5.2,16.7-15.9c19.8-22.6,39.6-36.4,61.2-42.5c-26.3-89.8-109.2-155.4-207.5-155.4c-119.4,0-216.2,96.8-216.2,216.2
		s96.8,216.2,216.2,216.2C317.2,545.2,318.9,545.2,320.5,545.1z"/> </g> <g> <path fill="#FFFFFF" d="M2601.3,500.1c37.8,6.2,28.3-29.8,43.7-51.8c2.9-4.1,10.3-13,14-4.2c4,9.6-11.6,31.5-16.1,40.9
		c10.1,7.7,33.5-8,41.3-13.8c4.1-3.1,30.3-23.6,19.3-1c-20.3,41.7-51.3,84.4-49.8,132.5c18-0.8,17-32.5,28.2-42.9
		c18.9,30.6,22.1-27.1,25.9-40.1c9.4,6.1-1.2,24.2,8.7,28.3c14.9,6.1,17.6-26.7,18.2-32.6c0.5-5.3,0.4-33.1,10.9-31.8
		c7.7,0.9,5.2,22.4,5.8,28.1c29.5-12.8,9.5-42.4,20.2-65.4c8.4,7.8,1.1,18.1,6,27c5.9-2.7,19-25.3,22.8-24.7
		c11.1,2,24,37.5,29.3,46.6c15.9,27.1,17.8,68.2,20.4,98.8c3.7,44.7-3.1,88.8-11.7,132.5c-4.6,23.2-22,84.8-22,84.8h73.1
		c0,0,4.2-48,5.8-70.2c3.1-43.2,3.6-87-2.5-130c-5.7-40.2-12.6-82.9-31.4-119.3c-3-5.8-28.3-39.2-26.1-43.6
		c5.7-11.5-23.5-34-27.8-44.4c13.1-13.8,56.1,66.3,59.3,14c10.7,1,14.3,16.7,27.8,17.9c17.2,1.5,11-13.5,11-24.6
		c11.4-0.1,16.6,18.7,27.8,22.1c21.7,6.6,15.2-11.6,9.9-22.3c13.4-2.5,18.9,23.9,36.5,18.6c6.9-2.1,7.2-10.7,15.4-10.1
		c8.9,0.6,17.8,1.2,26.8,1.8c0.6-10.4-48.4-29.1-58.2-36.5c-21.7-16.3-47.2-26.1-74.6-25.4c-9.8,0.2-56.3,14.5-61.1,5.4
		c10.1-20.6,30.5-18.4,2.3-26.1c5.7-6.4,60.5-25.1,26.6-37.2c-0.3-11.2,41.8-20.5,50.5-29.8c19-20.3-53.6-8.4-63.9-4.6
		c-27.9,10.2-44.4,31.1-54.7,58.4c-11.2,29.8-27.3,16.2-45.4-4.4c-18.1-20.7-39.4-37.4-66.9-40.5c-13.9-1.6-30.1-5-43.9-1.1
		c-12,3.3,3.7,20.2,6.7,25.2c6.9,11.4,14.1,22.7,23.9,31.8c3.2,3,21,5.3,19.6,7.3c-8.4,11.6,7.4,25.8,14.7,33.3
		c9.2,9.5,16.9-7.4,26.4-9.2c-38.7,50.4-117.8,40.6-144.3,104c-4.1,9.9-12,23.7-12.8,34.5c-1.6,20.7,23-10.4,24-12.3
		c1.3-2.5,11-30,18.1-24.8C2615.2,473.6,2602.7,494.2,2601.3,500.1C2611.1,501.7,2602.1,496.7,2601.3,500.1z"/> <g> <path fill="#FFFFFF" d="M2783.2,487.1l0.4-0.2c5.8-2.6,10.2-8.1,16.8-16.7c3.9,6.8,8.1,15.9,10.1,20.3c2.4,5.2,4.3,9.4,6,12.3
			c4.9,8.3,8.3,18.5,10.8,29.5c-17.5-6.4-34-14.9-49.1-25.3C2781.6,500.6,2782.8,493.7,2783.2,487.1z"/> <path fill="#FFFFFF" d="M2896.1,545.1c-5-21-11.7-41.2-21.5-60.2c-1.3-2.5-3.7-6-8.5-13c-3.5-5.1-10.8-15.7-14.5-22
			c2,0.5,4.1,0.8,6.2,0.8c0,0,0,0,0,0c4.8,0,11.5-1.4,16.6-8.1c4.5,3.8,10.5,7.3,18.7,8c1.2,0.1,2.5,0.2,3.6,0.2
			c9.9,0,15.7-4.1,18.8-7.6c0.7-0.7,1.3-1.5,1.8-2.3c3.2,2.8,6.9,5.2,11.5,6.6c4.5,1.4,8.5,2.1,12.2,2.1c7.8,0,14.5-3.3,18.4-9
			c4.3,2.6,9.4,4.5,15.6,4.5c3,0,6-0.5,8.9-1.4c6.8-2.1,10.8-6.5,13.1-9.3c2.6,0.2,5.2,0.4,7.8,0.5c5.3,0.4,10.6,0.7,15.9,1.1
			l15.1,1l0.9-15.1c0.9-16.1-16.5-25.4-47.3-40.5c-6.2-3.1-14.8-7.2-16.8-8.8c-24.7-18.6-52.7-28.4-80.9-28.4c-1,0-2,0-3.1,0
			c-4.1,0.1-9.7,1.3-19.3,3.3c-3.2,0.7-6.9,1.5-10.6,2.2c0.8-2.5,1.1-5.3,0.4-8.5c-0.1-0.6-0.3-1.2-0.5-1.7
			c13.2-7.5,25-16.6,24.1-30.3c-0.2-2.9-0.9-5.5-2.2-8c3.4-1.5,7-3,9.7-4.1c11.9-4.9,22.1-9.1,28-15.4c9.4-10,7.6-18.9,5.7-23.3
			c-5.8-13.5-23.4-13.5-30.9-13.5c-18.5,0-46.4,4.7-54.8,7.8c-29.9,11-50.6,32.9-63.6,67.2c-1.4,3.7-2.6,5.8-3.4,6.9
			c-2.4-1.4-7.3-5.2-16.7-15.9c-19.8-22.6-39.6-36.4-61.2-42.5c26.3-89.8,109.2-155.4,207.5-155.4c119.4,0,216.2,96.8,216.2,216.2
			s-96.8,216.2-216.2,216.2C2899.3,545.2,2897.7,545.2,2896.1,545.1z"/> </g> </g> </symbol><symbol viewBox="0 0 47 47" id="icon-shovel"><title>shovel</title> <path d="M24.7,37.7c1.9-1.9,3.7-3.7,5.6-5.6c-0.1-0.1-0.1-0.1-0.2-0.2C24.1,25.9,18.2,20,12.3,14.1c-0.1-0.1-0.3-0.2-0.5-0.2
	c-3.7,0-7.3,0-11,0c-0.1,0-0.2,0-0.3,0C5,9.5,9.4,5.1,13.8,0.7c0,0,0,0,0-0.1c0,0.1,0,0.2,0,0.3c0,3.7,0,7.3,0,11
	c0,0.2,0.1,0.4,0.2,0.5c5.9,5.9,11.9,11.9,17.8,17.8c0.1,0.1,0.1,0.1,0.2,0.2c1.9-1.9,3.7-3.7,5.6-5.6c0.5,0.4,0.9,0.8,1.4,1.3
	c2.2,2.2,4.2,4.5,5.8,7.2c0.8,1.4,1.4,2.9,1.7,4.4c0.8,3.9-1.5,7.6-5.2,8.7c-1.5,0.4-3.1,0.3-4.6-0.1c-1.8-0.5-3.5-1.4-5-2.4
	c-2.5-1.7-4.8-3.7-6.8-6C24.8,37.8,24.7,37.7,24.7,37.7z M33.7,32.1c1.6,1.6,3.3,3.3,4.9,4.9c-0.6,0.6-1.1,1.1-1.7,1.7
	c-1.6-1.6-3.3-3.3-4.9-4.9c-1.3,1.3-2.6,2.6-4,3.9c0.1,0.1,0.1,0.1,0.1,0.2c1.5,1.5,3,2.8,4.8,3.9c1.4,0.9,2.9,1.7,4.5,2.2
	c1.1,0.3,2.2,0.4,3.3,0c2.5-0.8,3.9-3.3,3.4-5.9c-0.3-1.3-0.8-2.6-1.4-3.7c-1.3-2.3-3-4.4-4.9-6.3c0,0,0,0,0,0
	C36.3,29.5,35,30.8,33.7,32.1z M6.3,11.5c1.7,0,3.4,0,5.1,0c0-1.7,0-3.4,0-5.1C9.7,8.1,8,9.8,6.3,11.5z"/> </symbol><symbol viewBox="0 0 28.9 28.9" id="icon-stamped-concrete"><title>stamped-concrete</title> <path d="M26.6,4.7H2.3c-1.1,0-2,0.9-2,2v17.6c0,1.1,0.9,2,2,2h24.2c1.1,0,2-0.9,2-2V6.7C28.6,5.6,27.7,4.7,26.6,4.7z M1.7,6.5h12
	v5.1h-12V6.5z M19.8,12.8v5.3H9.1v-5.3H19.8z M7.9,12.8v5.3H1.7v-5.3H7.9z M13.7,24.7h-12v-5.1h12V24.7z M27.1,24.7H15.2v-5.1h11.8
	V24.7z M27.1,18.1h-6v-5.3h6V18.1z M27.1,11.6H15.2V6.5h11.8V11.6z"/> </symbol><symbol viewBox="0 0 47.9 47.9" id="icon-tools"><title>tools</title> <path d="M9,38.9c-1,0-2,0-2.9,0c-0.1,0-0.2,0.1-0.3,0.2c-1.1,1.1-2.1,2.1-3.2,3.2C1.9,43,1,42.8,0.7,41.9c-1.3-3.5-0.8-6.8,1.8-9.5
	c2.5-2.6,5.6-3.4,9.1-2.5c0.2,0.1,0.3,0,0.5-0.1c1.9-1.9,3.8-3.9,5.8-5.8c0.1-0.1,0.1-0.1,0.2-0.3c-0.2-0.2-0.4-0.3-0.6-0.5
	c-1.8-1.8-3.6-3.6-5.5-5.4c-0.2-0.2-0.3-0.2-0.5-0.1C8.4,18.6,5.5,18,3,15.8C0.2,13.3-0.8,9.1,0.7,5.7C1,4.9,1.9,4.8,2.5,5.3
	c1.1,1.1,2.2,2.2,3.3,3.4C5.9,8.9,6,9,6.3,8.9c0.9,0,1.8,0,2.7,0c0-0.1,0-0.2,0-0.3C9,7.8,9,7,9,6.2C9,6,8.9,5.9,8.8,5.8
	C7.6,4.7,6.5,3.6,5.4,2.5C4.7,1.9,4.9,1,5.8,0.7c4.1-1.7,9,0,11.1,4c1.2,2.2,1.4,4.6,0.7,7c0,0.2,0,0.3,0.1,0.4c2,2,4,4,5.9,5.9
	c0,0,0.1,0.1,0.1,0.1c0.1-0.1,0.1-0.1,0.2-0.2c1.9-1.9,3.9-3.9,5.8-5.8c0.1-0.1,0.2-0.3,0.1-0.5C28.4,6.4,31.7,1.1,37,0.1
	c1.7-0.3,3.4-0.1,5,0.6c0.8,0.3,1,1.2,0.4,1.8c-1.1,1.1-2.2,2.2-3.2,3.2C39,5.9,38.9,6,38.9,6.2c0,0.8,0,1.6,0,2.4
	c0,0.1,0,0.2,0,0.3c0.9,0,1.8,0,2.6,0c0.1,0,0.2-0.1,0.2-0.1c1.1-1.1,2.2-2.3,3.3-3.4c0.6-0.7,1.5-0.5,1.9,0.4
	c2.1,5.1-0.9,10.9-6.3,12c-1.6,0.3-3.1,0.3-4.6-0.1c-0.1,0-0.3,0-0.3,0.1c-2,2-4,4-6,6c0,0,0,0,0,0.1c0.1,0.1,0.1,0.1,0.2,0.2
	c1.9,1.9,3.9,3.9,5.8,5.8c0.1,0.1,0.3,0.2,0.4,0.1c5.2-1.6,10.6,1.8,11.5,7.2c0.3,1.7,0.1,3.3-0.6,4.9c-0.3,0.8-1.2,1-1.9,0.4
	c-1.1-1-2.1-2.1-3.2-3.2c-0.2-0.2-0.4-0.3-0.6-0.3c-0.8,0-1.5,0-2.3,0c0,0.1,0,0.2,0,0.3c0,0.7,0,1.4,0,2.1c0,0.2,0.1,0.3,0.2,0.4
	c1.1,1.1,2.1,2.1,3.2,3.2c0.7,0.7,0.6,1.6-0.4,1.9c-3.6,1.3-6.9,0.7-9.7-2c-2.5-2.5-3.2-5.5-2.3-8.9c0.1-0.2,0-0.4-0.1-0.5
	c-1.9-1.9-3.8-3.8-5.7-5.7c-0.1-0.1-0.2-0.1-0.2-0.2c-0.1,0.1-0.2,0.1-0.2,0.2c-1.9,1.9-3.9,3.9-5.8,5.8c-0.1,0.1-0.2,0.3-0.1,0.5
	c1.6,5.2-1.6,10.5-7,11.4c-1.7,0.3-3.4,0.1-5-0.6c-0.8-0.3-0.9-1.2-0.3-1.8c1.1-1.1,2.3-2.2,3.4-3.3C8.9,41.7,9,41.6,9,41.5
	C9,40.6,9,39.8,9,38.9z M39.6,2.2c-0.6-0.1-1.5-0.1-2.1,0c-4.4,0.7-6.9,5.2-5.3,9.3c0.2,0.6,0.1,1-0.3,1.5c-4,4-8,8-12,11.9
	c-2.3,2.3-4.6,4.6-6.9,6.9c-0.4,0.4-0.9,0.5-1.4,0.3c-1.4-0.6-2.8-0.7-4.3-0.3c-2.8,0.7-4.8,3.1-5.1,6c-0.1,0.6,0,1.1,0,1.7
	c0,0,0.1,0,0.1,0c0.1-0.1,0.1-0.1,0.2-0.2c0.7-0.7,1.5-1.5,2.2-2.2c0.2-0.2,0.5-0.4,0.9-0.4c1.5,0,2.9,0,4.4,0
	c0.7,0,1.1,0.4,1.1,1.1c0,1.4,0,2.7,0,4.1c0,0.3-0.1,0.6-0.3,0.8c-0.3,0.3-0.7,0.6-1,1c-0.5,0.5-1,1-1.4,1.5c0.6,0.1,1.3,0.1,1.9,0
	c4.4-0.8,6.8-5.2,5.2-9.3c-0.2-0.6-0.1-1,0.3-1.5c2.6-2.6,5.2-5.2,7.8-7.8c3.7-3.7,7.4-7.4,11-11.1c0.4-0.4,0.8-0.5,1.4-0.3
	c1.1,0.5,2.2,0.6,3.4,0.5c3.2-0.4,5.8-3.1,6-6.3c0-0.4,0-0.9,0-1.3c0,0-0.1,0-0.1,0c-0.1,0.1-0.2,0.3-0.4,0.4
	c-0.7,0.7-1.4,1.4-2,2.1c-0.2,0.3-0.5,0.4-0.9,0.4c-1.3,0-2.6,0-4,0c-0.8,0-1.2-0.4-1.2-1.2c0-1.4,0-2.7,0-4.1
	c0-0.5,0.1-0.8,0.5-1.2C38,3.8,38.8,3.1,39.6,2.2z M39.5,45.3c0,0,0.1-0.1,0.1-0.1c-0.1-0.1-0.2-0.1-0.3-0.2
	c-0.7-0.7-1.4-1.5-2.2-2.2c-0.3-0.3-0.4-0.6-0.4-1c0-1.3,0-2.7,0-4c0-0.7,0.4-1.2,1.2-1.2c1.3,0,2.6,0,4,0c0.4,0,0.7,0.1,1,0.4
	c0.7,0.7,1.4,1.5,2.2,2.2c0.1,0.1,0.1,0.1,0.3,0.3c0-0.7,0.1-1.3,0-1.8c-0.5-4.5-5.1-7.3-9.3-5.7c-0.6,0.2-1.1,0.1-1.5-0.3
	c-2.1-2.1-4.2-4.2-6.3-6.3c-0.1-0.1-0.1-0.2-0.2-0.2c-0.9,0.9-1.8,1.8-2.8,2.8c0.1,0,0.1,0.1,0.2,0.2c2.1,2.1,4.2,4.2,6.3,6.3
	c0.4,0.4,0.5,0.9,0.3,1.5c-0.8,2-0.7,3.9,0.4,5.8C33.9,44.4,36.8,45.8,39.5,45.3z M2.2,8.3c-0.1,0.4-0.1,1.3,0,2
	c0.8,4.3,5.2,6.7,9.3,5.1c0.5-0.2,1-0.1,1.4,0.3c2.1,2.1,4.2,4.2,6.3,6.3c0.1,0.1,0.2,0.1,0.2,0.2c0.9-0.9,1.8-1.8,2.7-2.8
	c-0.1,0-0.2-0.1-0.2-0.2c-2.1-2.1-4.2-4.2-6.3-6.3c-0.4-0.4-0.5-0.9-0.3-1.4c0.5-1.2,0.6-2.4,0.4-3.6c-0.5-3-2.7-5.2-5.6-5.8
	c-0.7-0.1-1.3-0.1-2.1,0c0.2,0.2,0.3,0.2,0.4,0.4C9.3,3.3,10,4,10.7,4.7c0.2,0.2,0.4,0.5,0.4,0.8c0,1.5,0,3,0,4.5
	c0,0.6-0.5,1.1-1.1,1.1c-1.5,0-3,0-4.5,0c-0.3,0-0.6-0.1-0.8-0.3C4.4,10.4,4,10,3.7,9.6C3.2,9.2,2.7,8.7,2.2,8.3z"/> </symbol></svg>