<?xml version="1.0" encoding="utf-8"?>
<!-- Generator: Adobe Illustrator 18.0.0, SVG Export Plug-In . SVG Version: 6.00 Build 0)  -->
<!DOCTYPE svg PUBLIC "-//W3C//DTD SVG 1.1//EN" "http://www.w3.org/Graphics/SVG/1.1/DTD/svg11.dtd">
<svg version="1.1" id="Layer_1" xmlns:sketch="http://www.bohemiancoding.com/sketch/ns"
	 xmlns="http://www.w3.org/2000/svg" xmlns:xlink="http://www.w3.org/1999/xlink" x="0px" y="0px" viewBox="0 0 47 47"
	 enable-background="new 0 0 47 47" xml:space="preserve">
<path d="M24.7,37.7c1.9-1.9,3.7-3.7,5.6-5.6c-0.1-0.1-0.1-0.1-0.2-0.2C24.1,25.9,18.2,20,12.3,14.1c-0.1-0.1-0.3-0.2-0.5-0.2
	c-3.7,0-7.3,0-11,0c-0.1,0-0.2,0-0.3,0C5,9.5,9.4,5.1,13.8,0.7c0,0,0,0,0-0.1c0,0.1,0,0.2,0,0.3c0,3.7,0,7.3,0,11
	c0,0.2,0.1,0.4,0.2,0.5c5.9,5.9,11.9,11.9,17.8,17.8c0.1,0.1,0.1,0.1,0.2,0.2c1.9-1.9,3.7-3.7,5.6-5.6c0.5,0.4,0.9,0.8,1.4,1.3
	c2.2,2.2,4.2,4.5,5.8,7.2c0.8,1.4,1.4,2.9,1.7,4.4c0.8,3.9-1.5,7.6-5.2,8.7c-1.5,0.4-3.1,0.3-4.6-0.1c-1.8-0.5-3.5-1.4-5-2.4
	c-2.5-1.7-4.8-3.7-6.8-6C24.8,37.8,24.7,37.7,24.7,37.7z M33.7,32.1c1.6,1.6,3.3,3.3,4.9,4.9c-0.6,0.6-1.1,1.1-1.7,1.7
	c-1.6-1.6-3.3-3.3-4.9-4.9c-1.3,1.3-2.6,2.6-4,3.9c0.1,0.1,0.1,0.1,0.1,0.2c1.5,1.5,3,2.8,4.8,3.9c1.4,0.9,2.9,1.7,4.5,2.2
	c1.1,0.3,2.2,0.4,3.3,0c2.5-0.8,3.9-3.3,3.4-5.9c-0.3-1.3-0.8-2.6-1.4-3.7c-1.3-2.3-3-4.4-4.9-6.3c0,0,0,0,0,0
	C36.3,29.5,35,30.8,33.7,32.1z M6.3,11.5c1.7,0,3.4,0,5.1,0c0-1.7,0-3.4,0-5.1C9.7,8.1,8,9.8,6.3,11.5z"/>
</svg>
