<?xml version="1.0" encoding="utf-8"?>
<!-- Generator: Adobe Illustrator 18.0.0, SVG Export Plug-In . SVG Version: 6.00 Build 0)  -->
<!DOCTYPE svg PUBLIC "-//W3C//DTD SVG 1.1//EN" "http://www.w3.org/Graphics/SVG/1.1/DTD/svg11.dtd">
<svg version="1.1" id="Layer_1" xmlns="http://www.w3.org/2000/svg" xmlns:xlink="http://www.w3.org/1999/xlink" x="0px" y="0px"
	 viewBox="0 0 47.9 47.9" enable-background="new 0 0 47.9 47.9" xml:space="preserve">
<path d="M9,38.9c-1,0-2,0-2.9,0c-0.1,0-0.2,0.1-0.3,0.2c-1.1,1.1-2.1,2.1-3.2,3.2C1.9,43,1,42.8,0.7,41.9c-1.3-3.5-0.8-6.8,1.8-9.5
	c2.5-2.6,5.6-3.4,9.1-2.5c0.2,0.1,0.3,0,0.5-0.1c1.9-1.9,3.8-3.9,5.8-5.8c0.1-0.1,0.1-0.1,0.2-0.3c-0.2-0.2-0.4-0.3-0.6-0.5
	c-1.8-1.8-3.6-3.6-5.5-5.4c-0.2-0.2-0.3-0.2-0.5-0.1C8.4,18.6,5.5,18,3,15.8C0.2,13.3-0.8,9.1,0.7,5.7C1,4.9,1.9,4.8,2.5,5.3
	c1.1,1.1,2.2,2.2,3.3,3.4C5.9,8.9,6,9,6.3,8.9c0.9,0,1.8,0,2.7,0c0-0.1,0-0.2,0-0.3C9,7.8,9,7,9,6.2C9,6,8.9,5.9,8.8,5.8
	C7.6,4.7,6.5,3.6,5.4,2.5C4.7,1.9,4.9,1,5.8,0.7c4.1-1.7,9,0,11.1,4c1.2,2.2,1.4,4.6,0.7,7c0,0.2,0,0.3,0.1,0.4c2,2,4,4,5.9,5.9
	c0,0,0.1,0.1,0.1,0.1c0.1-0.1,0.1-0.1,0.2-0.2c1.9-1.9,3.9-3.9,5.8-5.8c0.1-0.1,0.2-0.3,0.1-0.5C28.4,6.4,31.7,1.1,37,0.1
	c1.7-0.3,3.4-0.1,5,0.6c0.8,0.3,1,1.2,0.4,1.8c-1.1,1.1-2.2,2.2-3.2,3.2C39,5.9,38.9,6,38.9,6.2c0,0.8,0,1.6,0,2.4
	c0,0.1,0,0.2,0,0.3c0.9,0,1.8,0,2.6,0c0.1,0,0.2-0.1,0.2-0.1c1.1-1.1,2.2-2.3,3.3-3.4c0.6-0.7,1.5-0.5,1.9,0.4
	c2.1,5.1-0.9,10.9-6.3,12c-1.6,0.3-3.1,0.3-4.6-0.1c-0.1,0-0.3,0-0.3,0.1c-2,2-4,4-6,6c0,0,0,0,0,0.1c0.1,0.1,0.1,0.1,0.2,0.2
	c1.9,1.9,3.9,3.9,5.8,5.8c0.1,0.1,0.3,0.2,0.4,0.1c5.2-1.6,10.6,1.8,11.5,7.2c0.3,1.7,0.1,3.3-0.6,4.9c-0.3,0.8-1.2,1-1.9,0.4
	c-1.1-1-2.1-2.1-3.2-3.2c-0.2-0.2-0.4-0.3-0.6-0.3c-0.8,0-1.5,0-2.3,0c0,0.1,0,0.2,0,0.3c0,0.7,0,1.4,0,2.1c0,0.2,0.1,0.3,0.2,0.4
	c1.1,1.1,2.1,2.1,3.2,3.2c0.7,0.7,0.6,1.6-0.4,1.9c-3.6,1.3-6.9,0.7-9.7-2c-2.5-2.5-3.2-5.5-2.3-8.9c0.1-0.2,0-0.4-0.1-0.5
	c-1.9-1.9-3.8-3.8-5.7-5.7c-0.1-0.1-0.2-0.1-0.2-0.2c-0.1,0.1-0.2,0.1-0.2,0.2c-1.9,1.9-3.9,3.9-5.8,5.8c-0.1,0.1-0.2,0.3-0.1,0.5
	c1.6,5.2-1.6,10.5-7,11.4c-1.7,0.3-3.4,0.1-5-0.6c-0.8-0.3-0.9-1.2-0.3-1.8c1.1-1.1,2.3-2.2,3.4-3.3C8.9,41.7,9,41.6,9,41.5
	C9,40.6,9,39.8,9,38.9z M39.6,2.2c-0.6-0.1-1.5-0.1-2.1,0c-4.4,0.7-6.9,5.2-5.3,9.3c0.2,0.6,0.1,1-0.3,1.5c-4,4-8,8-12,11.9
	c-2.3,2.3-4.6,4.6-6.9,6.9c-0.4,0.4-0.9,0.5-1.4,0.3c-1.4-0.6-2.8-0.7-4.3-0.3c-2.8,0.7-4.8,3.1-5.1,6c-0.1,0.6,0,1.1,0,1.7
	c0,0,0.1,0,0.1,0c0.1-0.1,0.1-0.1,0.2-0.2c0.7-0.7,1.5-1.5,2.2-2.2c0.2-0.2,0.5-0.4,0.9-0.4c1.5,0,2.9,0,4.4,0
	c0.7,0,1.1,0.4,1.1,1.1c0,1.4,0,2.7,0,4.1c0,0.3-0.1,0.6-0.3,0.8c-0.3,0.3-0.7,0.6-1,1c-0.5,0.5-1,1-1.4,1.5c0.6,0.1,1.3,0.1,1.9,0
	c4.4-0.8,6.8-5.2,5.2-9.3c-0.2-0.6-0.1-1,0.3-1.5c2.6-2.6,5.2-5.2,7.8-7.8c3.7-3.7,7.4-7.4,11-11.1c0.4-0.4,0.8-0.5,1.4-0.3
	c1.1,0.5,2.2,0.6,3.4,0.5c3.2-0.4,5.8-3.1,6-6.3c0-0.4,0-0.9,0-1.3c0,0-0.1,0-0.1,0c-0.1,0.1-0.2,0.3-0.4,0.4
	c-0.7,0.7-1.4,1.4-2,2.1c-0.2,0.3-0.5,0.4-0.9,0.4c-1.3,0-2.6,0-4,0c-0.8,0-1.2-0.4-1.2-1.2c0-1.4,0-2.7,0-4.1
	c0-0.5,0.1-0.8,0.5-1.2C38,3.8,38.8,3.1,39.6,2.2z M39.5,45.3c0,0,0.1-0.1,0.1-0.1c-0.1-0.1-0.2-0.1-0.3-0.2
	c-0.7-0.7-1.4-1.5-2.2-2.2c-0.3-0.3-0.4-0.6-0.4-1c0-1.3,0-2.7,0-4c0-0.7,0.4-1.2,1.2-1.2c1.3,0,2.6,0,4,0c0.4,0,0.7,0.1,1,0.4
	c0.7,0.7,1.4,1.5,2.2,2.2c0.1,0.1,0.1,0.1,0.3,0.3c0-0.7,0.1-1.3,0-1.8c-0.5-4.5-5.1-7.3-9.3-5.7c-0.6,0.2-1.1,0.1-1.5-0.3
	c-2.1-2.1-4.2-4.2-6.3-6.3c-0.1-0.1-0.1-0.2-0.2-0.2c-0.9,0.9-1.8,1.8-2.8,2.8c0.1,0,0.1,0.1,0.2,0.2c2.1,2.1,4.2,4.2,6.3,6.3
	c0.4,0.4,0.5,0.9,0.3,1.5c-0.8,2-0.7,3.9,0.4,5.8C33.9,44.4,36.8,45.8,39.5,45.3z M2.2,8.3c-0.1,0.4-0.1,1.3,0,2
	c0.8,4.3,5.2,6.7,9.3,5.1c0.5-0.2,1-0.1,1.4,0.3c2.1,2.1,4.2,4.2,6.3,6.3c0.1,0.1,0.2,0.1,0.2,0.2c0.9-0.9,1.8-1.8,2.7-2.8
	c-0.1,0-0.2-0.1-0.2-0.2c-2.1-2.1-4.2-4.2-6.3-6.3c-0.4-0.4-0.5-0.9-0.3-1.4c0.5-1.2,0.6-2.4,0.4-3.6c-0.5-3-2.7-5.2-5.6-5.8
	c-0.7-0.1-1.3-0.1-2.1,0c0.2,0.2,0.3,0.2,0.4,0.4C9.3,3.3,10,4,10.7,4.7c0.2,0.2,0.4,0.5,0.4,0.8c0,1.5,0,3,0,4.5
	c0,0.6-0.5,1.1-1.1,1.1c-1.5,0-3,0-4.5,0c-0.3,0-0.6-0.1-0.8-0.3C4.4,10.4,4,10,3.7,9.6C3.2,9.2,2.7,8.7,2.2,8.3z"/>
</svg>
