<?xml version="1.0" encoding="utf-8"?>
<!-- Generator: Adobe Illustrator 18.0.0, SVG Export Plug-In . SVG Version: 6.00 Build 0)  -->
<!DOCTYPE svg PUBLIC "-//W3C//DTD SVG 1.1//EN" "http://www.w3.org/Graphics/SVG/1.1/DTD/svg11.dtd">
<svg version="1.1" id="Layer_1" xmlns="http://www.w3.org/2000/svg" xmlns:xlink="http://www.w3.org/1999/xlink" x="0px" y="0px"
	 viewBox="0 0 500 500" enable-background="new 0 0 500 500" xml:space="preserve">
<path d="M26.7,381.4C12.6,381.4,1,369.9,1,355.8c0-20.1,0-40.2,0-60.3c0-13.5,10.9-25.2,24.5-25.4c15.5-0.3,31-0.1,46.6-0.2
	c0.7,0,1.4,0,2.3,0c-0.2-1-0.4-1.8-0.5-2.7c-0.2-1.6-0.5-3.2-0.5-4.9c0-19.7,0-39.3,0-59c0-15.6,11.1-26.8,26.7-26.8
	c17.5,0,35,0,52.4,0c0.6,0,1.3,0,1.9,0c-1.7-11.1-0.7-22.1-0.9-33.1c-0.2-11.1-0.1-22.1,0-33.2c0-13,7.5-23.1,19.5-26.2
	c2.4-0.6,4.9-0.9,7.4-0.9c41.6-0.1,83.2,0,124.8,0c13.1,0,23.4,8,26.2,20.4c0.4,1.7,0.6,3.4,0.6,5.2c0,20.1,0.1,40.3,0,60.4
	c0,2.4-0.5,4.8-0.8,7.4c0.5,0,1.2,0,1.8,0c17.5,0,35,0,52.4,0c11.9,0,21.5,6.5,25.2,17.3c0.9,2.7,1.5,5.6,1.5,8.5
	c0.1,20,0.1,40,0,60c0,2.5-0.5,4.9-0.8,7.6c0.7,0,1.4,0,2.1,0c19.9,0,39.9,0,59.8,0c7,0,13.2,2,18.4,6.7c5.2,4.7,8.4,10.7,8.5,17.8
	c0.2,20.9,0.3,41.8,0,62.7c-0.2,13.4-12,24.4-25.4,24.4C433.3,381.4,68.2,381.4,26.7,381.4z M241.7,101.4c-20.7,0-41.5,0-62.2,0
	c-5.5,0-8.7,3.1-8.7,8.5c0,19.4,0,38.8,0,58.2c0,5.4,3.2,8.4,8.6,8.4c27.3,0,54.6,0,81.8,0c14.6,0,29.2,0,43.8,0
	c4.5,0,7.9-3.2,7.9-7.6c0-20,0-40-0.1-59.9c0-1.5-0.7-3.1-1.5-4.4c-1.7-2.5-4.3-3.2-7.3-3.2C283.3,101.4,262.5,101.4,241.7,101.4z
	 M410.2,363.2c21,0,41.9,0,62.9,0c4.9,0,8.1-3.2,8.1-8c0-2.3,0-4.6,0-6.9c0-17.3,0-34.5,0-51.8c0-3.1-1-5.7-3.7-7.1
	c-1.6-0.8-3.5-1.2-5.3-1.2c-41.5,0-83,0-124.5,0.1c-0.2,0-0.4,0-0.7,0c-5,0.1-8.1,3.2-8.1,8.3c0,19.5,0,39,0,58.5
	c0,5.1,3.2,8.3,8.3,8.3C368.2,363.2,389.2,363.2,410.2,363.2z M249.7,288.2c-15.7,0-31.5,0-47.2,0c-5.2,0-10.3,0.1-15.5,0
	c-4.9-0.1-8.4,3.4-8.4,8.3c0,19.4,0,38.9,0,58.3c0,5.3,3.2,8.4,8.5,8.4c41.8,0,83.5,0,125.3,0c0.5,0,1,0,1.5,0
	c3.6-0.2,6.8-3.5,6.9-7.1c0-20.3,0-40.5-0.1-60.8c0-1.5-0.8-3.2-1.7-4.4c-1.6-2.3-4.1-2.8-6.8-2.8
	C291.3,288.2,270.5,288.2,249.7,288.2z M89.2,363.2c9,0,18.1,0,27.1,0c12.1,0,24.3,0,36.4,0c4.3,0,7.5-3.3,7.5-7.6
	c0-20,0-40-0.1-59.9c0-1.5-0.7-3.2-1.5-4.5c-1.6-2.5-4.3-3-7.2-3c-28.6,0-57.2-0.1-85.7-0.1c-12.7,0-25.4,0-38.1,0c-0.5,0-1,0-1.5,0
	c-5.1,0.3-8,3.3-8,8.4c0,19.5,0,39,0,58.5c0,5.1,3.1,8.2,8.2,8.2C47.4,363.2,68.3,363.2,89.2,363.2z M321.9,269.8
	c20.9,0,41.8-0.1,62.7,0.1c5,0,8.6-3.7,8.5-8.6c-0.1-19.2,0-38.4,0-57.7c0-5.8-3-8.9-8.8-8.9c-41.7,0-83.3,0.1-125,0
	c-5.2,0-8.5,4.1-8.4,8.5c0.1,19.4,0.1,38.8,0,58.2c0,4.5,3.4,8.5,8.5,8.5C280.2,269.7,301.1,269.8,321.9,269.8z M161.6,269.8
	c20.8,0,41.6-0.1,62.4,0.1c5.4,0.1,8.8-4,8.7-8.7c-0.2-19.2-0.2-38.4,0-57.7c0-4.5-3-8.8-8.8-8.8c-41.3,0.1-82.7,0-124,0
	c-0.5,0-1,0-1.5,0c-4.9,0.2-7.9,3.4-7.9,8.3c0,19.5,0.1,39-0.1,58.5c0,4.5,3.5,8.4,8.4,8.4C119.8,269.7,140.7,269.8,161.6,269.8z"/>
</svg>
