<?xml version="1.0" encoding="utf-8"?>
<!-- Generator: Adobe Illustrator 18.0.0, SVG Export Plug-In . SVG Version: 6.00 Build 0)  -->
<!DOCTYPE svg PUBLIC "-//W3C//DTD SVG 1.1//EN" "http://www.w3.org/Graphics/SVG/1.1/DTD/svg11.dtd">
<svg version="1.1" id="Layer_1" xmlns="http://www.w3.org/2000/svg" xmlns:xlink="http://www.w3.org/1999/xlink" x="0px" y="0px"
	 viewBox="0 0 500 500" enable-background="new 0 0 500 500" xml:space="preserve">
<path d="M250.3,268.2c0-0.9,0-1.7,0-2.5c0-18.3,0-36.7,0-55c0-4.2-1.2-5.3-5.4-5.3c-53.5,0-107,0-160.5,0
	c-16.5,0-29.1-12.6-29.1-29.1c0-26.7,0-53.3,0-80c0-17.1,12.4-29.5,29.4-29.5c0.9,0,1.8,0,3.1,0c0-1.2,0-2.2,0-3.2c0-16,0-32,0-48
	c0-8.7,5.1-13.8,13.8-13.8c96.6,0,193.2,0,289.8,0c9.1,0,13.9,4.8,13.9,13.9c0,14.8,0,29.5,0,44.3c0,1,0,2,0,3.4c2.6,0,5.1,0,7.6,0
	c2.6,0.1,5.2-0.2,7.7,0.4c5.8,1.3,9.6,7,9.1,13.2c-0.5,5.8-5.1,10.6-11,11.1c-3.5,0.3-7,0.1-10.5,0.2c-0.9,0-1.8,0.1-2.9,0.1
	c0,1.1,0,2,0,2.9c0,12.1,0,24.2,0,36.3c0,7.8-5.2,13-13,13c-97.1,0-194.2,0-291.3,0c-7.8,0-13.1-5.3-13.1-13.2c0-10.8,0-21.7,0-32.5
	c0-0.9,0-1.8,0-2.7c-5.5-1.3-7.6,0.3-7.6,5.6c0,25.7,0,51.3,0,77c0,4.8,1,5.8,5.8,5.8c53.3,0,106.5,0,159.8,0
	c15,0,26.6,9.7,29.1,24.3c0.3,1.5,0.3,3,0.3,4.5c0,18.8,0,37.7,0,56.5c0,1,0,2,0,2.7c4.1,1.7,8,3,11.7,5
	c13.5,7.5,20.9,18.7,20.9,34.6c-0.1,53.3-0.2,106.7,0.1,160c0.1,14.6-8.7,26.9-25.2,29.1c-12.6,1.6-25.5,1.6-38.1-0.3
	c-7.3-1.1-13.8-4.2-19.2-9.5c-4.9-5-7.5-11-7.5-18c0-54.5-0.1-109,0-163.5c0-17.5,11.9-32,29.7-36.9
	C248.4,268.7,249.2,268.5,250.3,268.2z M112.9,26.7c0,29.6,0,59.1,0,88.5c89.2,0,178.3,0,267.3,0c0-29.6,0-59,0-88.5
	C290.9,26.7,201.9,26.7,112.9,26.7z M282.8,387.4c0-26.5-0.1-53,0.1-79.5c0-5.3-2.1-9-6.4-11.6c-7.9-4.8-16.3-5.6-24.9-2.3
	c-5.9,2.2-8.9,6.7-8.9,13.1c0,53.5,0,107,0,160.4c0,1.7,0.6,2.9,2,3.3c3,0.8,6.1,1.9,9.2,2c7.2,0.3,14.3,0.1,21.5,0.1
	c1.2,0,2.5-0.1,3.7-0.4c3.4-0.7,3.7-1.1,3.7-4.7C282.8,441,282.8,414.2,282.8,387.4z"/>
</svg>
