<?xml version="1.0" encoding="utf-8"?>
<!-- Generator: Adobe Illustrator 18.0.0, SVG Export Plug-In . SVG Version: 6.00 Build 0)  -->
<!DOCTYPE svg PUBLIC "-//W3C//DTD SVG 1.1//EN" "http://www.w3.org/Graphics/SVG/1.1/DTD/svg11.dtd">
<svg version="1.1" id="Layer_1" xmlns="http://www.w3.org/2000/svg" xmlns:xlink="http://www.w3.org/1999/xlink" x="0px" y="0px"
	 viewBox="0 0 133.7 133.7" enable-background="new 0 0 133.7 133.7" xml:space="preserve">
<path d="M15.6,102.8c-3.4,0-3.5-0.2-3.5-3.5c0-7.7,0-15.3,0-23s-0.1-15.3,0-23c0-2.4-0.7-3.3-3.1-3.2c-5,0.1-4.6,0.5-4.6-4.5
	c0-3.8,0.1-7.7-0.1-11.5c0-8.9,9.5-11.5,13.1-11.5c6.4,0.4,12.8,0.2,19.2,0.1c1.9,0,2.7,0.5,2.6,2.5c-0.1,7.5-0.1,15,0,22.5
	c0,1.8-0.6,2.7-2.5,2.5c-1.9-0.2-2.6,0.6-2.6,2.6c0.1,14.2,0.1,28.3,0,42.5c0,2,0.7,2.6,2.6,2.6c1.9,0,2.6-0.6,2.6-2.6
	c0-5.3-0.1-32.5-0.1-32.5l0-7.3l5.2-0.1c1.6,0,2.3-0.7,2.3-2.2c0-1.2-0.1-2.3,0.1-3.5c0.1-0.7,0.5-1.7,0.9-1.8
	c2-0.3,2.1-1.7,2.5-3.2c2.2-10.4,4.4-20.8,6.8-31.2c1-4.6,4.1-6.9,8.8-6.9c11.9,0,23.8,0,35.8,0c6.1,0,9.2,2.6,10.4,8.6
	c2.1,10,4.2,20,6.4,30c0.2,1,1.5,1.7,2.1,2.6c0.6,0.9,1.2,1.9,1.3,2.9c0.1,5.5,0.1,4.7,4.8,4.7c0.8,0,2.5,0,2.5,0s0.2,6.4,0.2,7.7
	c0,12,0,24,0,36c0,3.6-0.2,3.8-3.8,3.7L15.6,102.8z M113.7,47.4c0.1-0.5,0.2-0.8,0.1-1c-2.2-10.5-4.4-21-6.7-31.5
	c-0.5-2.4-2.1-3.5-4.7-3.5c-12,0.1-24,0-36,0c-3.1,0-4.3,0.8-4.9,3.8c-2.2,9.7-4.2,19.5-6.3,29.3c-0.6,3-0.5,3.1,2.6,3.1
	c17.7,0,35.3,0,53,0C111.8,47.6,112.8,47.4,113.7,47.4z M44.3,61.6c0,0,0,22.6,0,33c0,3.2,0,3.3,3.4,3.3c12.2,0,24.5,0,36.7,0
	c12.2,0,24.5,0,36.7,0c3.4,0,3.4,0,3.4-3.3c0-10.3,0-20.7,0-31c0-1.1,0.8-3.2-1.2-3.2c-2,0-0.9,2.1-1.3,3.2
	c-0.4,0.9-0.9,2.5-1.5,2.5c-1.7,0.2-2.4,1.2-3.1,2.5c-3.3,6.4-6.7,12.8-10,19.3c-1.9,3.8-4.8,5.7-9.2,5.7c-9-0.1-18-0.1-27,0
	c-4.2,0-7.1-1.7-9.1-5.4C58.6,81.5,55,75,51.4,68.4c-0.5-0.9-1.4-1.9-2.2-2c-2-0.2-2.3-1.3-2.2-2.9c0-2,0-2,0-2 M56.3,66.5
	c0.1,0.7,0.1,1,0.3,1.3c3.3,6.2,6.6,12.3,9.9,18.4c1,1.8,2.5,2.4,4.6,2.4c9-0.1,18-0.1,27,0c2.5,0,4-1,5.1-3.1
	c2.9-5.6,5.8-11.2,8.7-16.8c0.3-0.6,0.4-1.3,0.7-2.2C93.7,66.5,75.2,66.5,56.3,66.5z M29.5,53.2c0-2.4-0.8-3.1-3-2.9
	c-2.4,0.2-4.8,0.1-7.2,0c-1.7-0.1-2.4,0.5-2.4,2.3c0,14.2,0,28.5,0,42.7c0,1.8,0.8,2.3,2.4,2.3c2.3-0.1,4.7-0.2,7,0
	c2.5,0.2,3.4-0.6,3.3-3.2 M84.5,61.3c9.3,0,18.6,0,28,0c4.8,0,4.8,0,4.8-4.8c0-3.8,0-3.9-3.9-3.9c-18.8,0-37.6,0-56.4,0
	c-5.2,0-5.2,0-5.2,5.2c0,3.3,0.2,3.5,3.6,3.5C65,61.3,74.7,61.3,84.5,61.3z M32,45.1c1.8,0,2.6-0.6,2.5-2.5c-0.1-4.2-0.1-8.5,0-12.7
	c0-1.8-0.6-2.5-2.5-2.5c-5.6,0.1-11.1,0-16.7,0c-3.3,0-6.1,3.1-6.1,5.6c-0.1,3.5,0,7,0,10.5c0,1.4,0.7,1.8,2,1.8"/>
<path d="M102.1,117.5c0.1-6.9,5.6-12.2,12.5-12.1c6.8,0.1,12.3,5.8,12.1,12.6c-0.2,6.8-5.8,12.3-12.6,12.2
	C107.4,130.1,102,124.4,102.1,117.5z M114.5,110.2c-4.3,0-7.6,3.2-7.7,7.5c0,4.2,3.4,7.7,7.6,7.6c4.1,0,7.7-3.6,7.6-7.7
	C122,113.6,118.7,110.2,114.5,110.2z"/>
<path d="M26.9,105.4c7,0,12.4,5.2,12.4,12.2c0,6.9-5.3,12.4-12.2,12.5c-6.7,0.1-12.4-5.5-12.5-12.3C14.5,111,20.1,105.4,26.9,105.4z
	 M27,110.2c-4.2,0-7.7,3.4-7.6,7.6c0,4.1,3.7,7.6,7.8,7.6c4.1-0.1,7.3-3.4,7.4-7.6C34.5,113.4,31.4,110.2,27,110.2z"/>
</svg>
