<?xml version="1.0" encoding="utf-8"?>
<!-- Generator: Adobe Illustrator 18.0.0, SVG Export Plug-In . SVG Version: 6.00 Build 0)  -->
<!DOCTYPE svg PUBLIC "-//W3C//DTD SVG 1.1//EN" "http://www.w3.org/Graphics/SVG/1.1/DTD/svg11.dtd">
<svg version="1.1" id="Layer_1" xmlns="http://www.w3.org/2000/svg" xmlns:xlink="http://www.w3.org/1999/xlink" x="0px" y="0px"
	 viewBox="0 0 146.6 146.6" enable-background="new 0 0 146.6 146.6" xml:space="preserve">
<g>
	<path d="M77.6,117.8c-9.7,0-19.3,0-29,0c-1.3,0-2.7-0.1-4,0.1c-4.4,0.7-5.4,1.8-6,6.4c-1.3,9.7-10.8,14.4-18.9,9.4
		c-3.3-2-5.3-5-5.3-9c0-5-0.1-10,0-15c0.1-2.7-0.9-3.8-3.7-4.1c-5.8-0.6-8.2-3.4-8.3-9.1c-0.1-2.2,0-4.3,0-6.5c0-3.1,1-5.6,3.7-7.2
		c1.9-1.1,2.2-2.5,2.4-4.5c1.3-11.6,5.9-21.7,13.8-30.3c5.5-5.9,11.7-10.7,19.2-13.9c3.8-1.7,6.9-5.1,10-8.1
		c4.3-4.3,9.4-6.9,15.4-7.4c5-0.4,9.9,0.9,14.6,2.5c24.8,8.2,40,25.2,45.9,50.6c1.5,6.7,1.2,13.5,1.2,20.4c0,1.7,0,3.3,0,5
		c0,1.7,0.8,2.4,2.4,2.4c2.8,0,5.7,0,8.5,0c1.2,0,2.4-0.1,3.5,0.1c2,0.4,3.5,1.5,3.4,3.7c-0.2,2.1-2,2.4-3.7,2.4
		c-5.5,0-11,0.1-16.5,0c-2.4,0-4,0.5-5.1,3c-3,6.7-8.1,9.5-15.5,9.2C96.2,117.5,86.9,117.8,77.6,117.8z M58,30.3
		c4.8,0.4,9-0.2,13.1,0.5c9.9,1.7,18.6,6,26.4,12.3c5.1,4.2,9.1,9.3,12.3,15c1.3,2.2,0.6,4-1.4,5c-1.9,1-3.1,0-4.1-1.6
		c-1-1.7-2.2-3.3-3.3-5c-11.1-15.9-32.3-23.7-51.2-18c-18.6,5.6-30.3,17.9-34.4,37.1c-1.3,5.9-1.4,5.9,4.5,5.9c16,0,32,0,48,0
		c1.6,0,3.4-0.3,4.8,0.8c1.1,0.8,2,1.8,1.6,3.4C74,87,73,87.6,71.7,87.7c-1.3,0.1-2.7,0.1-4,0.1c-17.5,0-35,0-52.5,0
		c-6.4,0-6.8,0.5-6.6,6.9c0,0.2,0,0.3,0,0.5c0.2,3.7,0.7,4.2,4.4,4.4c1.2,0.1,2.3,0,3.5,0c30.7,0,61.3,0,92,0c3.5,0,7-0.1,10.5,0
		c2.6,0.1,3.5-1,3.4-3.5c-0.2-6.6,0.2-13.3-0.9-19.9c-1.2-7.5-3.4-14.6-7.2-21.1c-5.4-9.2-12.6-16.6-21.8-22.1
		c-7.3-4.3-15.1-7-23.4-7.7C65.1,24.9,60.7,25.6,58,30.3z M67.5,105.7c-13.2,0-26.3,0-39.5,0c-1.7,0-3.3,0-5,0
		c-1.7,0-2.4,0.8-2.4,2.4c0,5.3-0.2,10.7,0.1,16c0.2,4.3,4.8,6.4,8.4,4c2-1.3,3.1-3.1,3.4-5.7c0.5-6,3.3-8.8,9-10.5
		c1.8-0.5,3.6-0.4,5.4-0.4c19.5,0,39,0,58.4,0c2.2,0,4.4,0.1,6.3-1.2c1.2-0.8,2.9-1.7,2.6-3.4c-0.4-1.5-2.4-1.3-3.8-1.3
		C96.1,105.7,81.8,105.7,67.5,105.7z"/>
</g>
</svg>
