<?xml version="1.0" encoding="utf-8"?>
<!-- Generator: Adobe Illustrator 18.0.0, SVG Export Plug-In . SVG Version: 6.00 Build 0)  -->
<!DOCTYPE svg PUBLIC "-//W3C//DTD SVG 1.1//EN" "http://www.w3.org/Graphics/SVG/1.1/DTD/svg11.dtd">
<svg version="1.1" id="Layer_1" xmlns="http://www.w3.org/2000/svg" xmlns:xlink="http://www.w3.org/1999/xlink" x="0px" y="0px"
	 viewBox="0 0 500 500" enable-background="new 0 0 500 500" xml:space="preserve">
<path fill-rule="evenodd" clip-rule="evenodd" d="M111,358.1c0,0,224.6,0,224.6,0l22.7-91.5c0,0-224.6,0-224.6,0L111,358.1z
	 M195.4,17.1c2.3-9.2-3.3-16.6-12.5-16.6c-9.3,0-18.5,7.4-20.7,16.6L46.8,482.9c-2.3,9.2,3.3,16.6,12.5,16.6
	c9.3,0,18.5-7.4,20.7-16.6l22.7-91.5c0,0,224.6,0,224.6,0l-22.7,91.5c-2.3,9.2,3.3,16.6,12.5,16.6c9.3,0,18.5-7.4,20.7-16.6
	L453.2,17.1c2.3-9.2-3.3-16.6-12.5-16.6c-9.3,0-18.5,7.4-20.7,16.6l-22.7,91.5c0,0-224.6,0-224.6,0L195.4,17.1z M141.8,233.4h224.5
	c0,0,22.7-91.5,22.7-91.5c0,0-224.6,0-224.6,0L141.8,233.4z"/>
</svg>
