<?xml version="1.0" encoding="utf-8"?>
<!-- Generator: Adobe Illustrator 18.0.0, SVG Export Plug-In . SVG Version: 6.00 Build 0)  -->
<!DOCTYPE svg PUBLIC "-//W3C//DTD SVG 1.1//EN" "http://www.w3.org/Graphics/SVG/1.1/DTD/svg11.dtd">
<svg version="1.1" id="Layer_1" xmlns="http://www.w3.org/2000/svg" xmlns:xlink="http://www.w3.org/1999/xlink" x="0px" y="0px"
	 viewBox="0 0 28.9 28.9" enable-background="new 0 0 28.9 28.9" xml:space="preserve">
<path d="M26.6,4.7H2.3c-1.1,0-2,0.9-2,2v17.6c0,1.1,0.9,2,2,2h24.2c1.1,0,2-0.9,2-2V6.7C28.6,5.6,27.7,4.7,26.6,4.7z M1.7,6.5h12
	v5.1h-12V6.5z M19.8,12.8v5.3H9.1v-5.3H19.8z M7.9,12.8v5.3H1.7v-5.3H7.9z M13.7,24.7h-12v-5.1h12V24.7z M27.1,24.7H15.2v-5.1h11.8
	V24.7z M27.1,18.1h-6v-5.3h6V18.1z M27.1,11.6H15.2V6.5h11.8V11.6z"/>
</svg>
